<svg width="185" height="66" viewBox="0 0 185 66" fill="none" xmlns="http://www.w3.org/2000/svg">
<g clip-path="url(#clip0_2_177)">
<path d="M50.7417 66L37.3304 32.6873C36.0913 29.5966 33.3702 27.7806 30.0174 27.7806C26.6646 27.7806 23.9435 29.6086 22.7044 32.6873L9.29313 66H0L14.6746 29.5244C17.2257 23.1866 23.1174 19.23 30.0053 19.23C36.8931 19.23 42.7848 23.1866 45.3359 29.5244L60.0105 66H50.7295H50.7417Z" fill="#232323"/>
<path d="M112.416 23.7758C114.214 21.1902 117.118 19.5787 120.276 19.3983C120.47 19.3983 120.665 19.3862 120.847 19.3862C121.612 19.3862 122.378 19.4704 123.131 19.6388C127.589 20.649 130.832 24.4613 131.075 28.9711V29.0072C131.1 29.3199 131.112 29.6446 131.112 29.9573V65.9398H122.487V29.9693C122.487 29.8611 122.487 29.7649 122.463 29.6687V29.5965V29.5244C122.463 28.7787 121.94 28.1293 121.199 27.9609C121.078 27.9369 120.956 27.9249 120.835 27.9249C120.349 27.9249 119.899 28.1413 119.584 28.5021L119.486 28.6224L106.136 57.6537C105.067 59.9868 103.597 63.6067 101.398 65.0378C100.317 65.7354 99.0901 65.9639 97.8267 65.9639C96.5512 65.9639 95.3364 65.7354 94.2552 65.0378C92.0564 63.6067 90.5866 59.9868 89.5175 57.6537L76.167 28.6224L76.0698 28.5021C75.7661 28.1413 75.3045 27.9249 74.8186 27.9249C74.3327 27.9249 74.5757 27.9369 74.4542 27.9609C73.7132 28.1293 73.1908 28.7787 73.1908 29.5244V29.5965V29.6687C73.1786 29.7649 73.1665 29.8731 73.1665 29.9693V65.9518H64.5415V29.9693C64.5415 29.6566 64.5537 29.3319 64.5779 29.0192V28.9832C64.8331 24.4613 68.0765 20.649 72.5227 19.6508C73.2758 19.4824 74.0411 19.3983 74.8065 19.3983C75.0008 19.3983 75.1952 19.3983 75.3774 19.4103C78.5359 19.5907 81.4392 21.2022 83.2371 23.7878L83.6987 24.4493L97.8145 55.1402L111.93 24.4493L112.392 23.7878L112.416 23.7758Z" fill="#232323"/>
<path d="M175.683 19.9876C174.189 19.4584 172.609 19.1938 171.03 19.1938H145.422V24.9785C145.422 26.5058 146.674 27.7325 148.204 27.7325H171.006C173.921 27.7325 176.351 30.1016 176.363 32.9879C176.363 32.9879 176.363 33.012 176.363 33.024C176.363 33.036 176.363 33.0601 176.363 33.0721C176.339 35.9584 173.946 38.3156 171.018 38.3156H150.755C149.176 38.3156 147.597 38.5801 146.103 39.1093C145.872 39.1935 145.641 39.2777 145.422 39.3739V33.3127C145.422 31.7853 144.171 30.5586 142.64 30.5586H136.797V54.6231V65.9759H145.422V54.6231V52.1457V52.0976C145.447 49.2113 147.84 46.8662 150.767 46.8662H171.03C172.925 46.8662 174.808 46.4814 176.557 45.7358L176.691 45.6756C179.424 44.461 181.696 42.4165 183.178 39.8429C184.368 37.7744 185 35.4293 185 33.0481C185 27.2033 181.234 21.9719 175.683 20.0116" fill="#232323"/>
<path d="M2.78186 2.33301L0 10.0057H1.23908L1.94366 7.97331H4.96848L5.67306 10.0057H6.91214L4.13028 2.33301H2.78186ZM2.29595 6.99919L3.43785 3.72805H3.49859L4.64049 6.99919H2.29595Z" fill="#232323"/>
<path d="M13.5937 7.03529H15.5009C15.5009 7.43215 15.4037 7.78091 15.2458 8.08157C15.0758 8.39425 14.8328 8.63478 14.517 8.80314C14.2011 8.97151 13.8367 9.05569 13.4115 9.05569C12.9863 9.05569 12.549 8.94746 12.1967 8.71896C11.8444 8.50249 11.565 8.16575 11.3585 7.74483C11.152 7.31189 11.0548 6.79476 11.0548 6.1694C11.0548 5.54403 11.152 5.0269 11.3585 4.59396C11.565 4.16101 11.8444 3.83631 12.1846 3.61983C12.5368 3.40336 12.9256 3.2831 13.3629 3.2831C13.8002 3.2831 13.861 3.31918 14.0675 3.37931C14.2861 3.45147 14.4805 3.54768 14.6384 3.66794C14.8085 3.80023 14.9543 3.95657 15.0758 4.13696C15.1972 4.31736 15.2944 4.5218 15.3673 4.7503H16.5699C16.5092 4.37749 16.3756 4.02873 16.1934 3.72807C16.0111 3.41539 15.7682 3.15081 15.4888 2.93434C15.2094 2.70584 14.8814 2.53747 14.517 2.41721C14.1525 2.29695 13.7638 2.23682 13.3508 2.23682C12.9377 2.23682 12.3911 2.33303 11.9659 2.51342C11.5407 2.69381 11.1763 2.95839 10.8604 3.29513C10.5446 3.63186 10.3016 4.05278 10.1316 4.53383C9.9615 5.01488 9.87646 5.56808 9.87646 6.18142C9.87646 6.79476 10.0222 7.6847 10.3138 8.27399C10.6053 8.86327 11.0184 9.32027 11.5529 9.63295C12.0752 9.95766 12.6948 10.114 13.3993 10.114C14.1039 10.114 14.5777 9.98171 15.0636 9.72916C15.5495 9.47661 15.9261 9.1038 16.2055 8.63478C16.4849 8.16575 16.6185 7.60052 16.6185 6.96313V6.08521H13.5694V7.03529H13.5937Z" fill="#232323"/>
<path d="M22.6436 0.637391L23.4211 1.64759H24.4415V1.58746L23.1052 0H22.1698L20.8457 1.58746V1.64759H21.8661L22.6436 0.637391Z" fill="#232323"/>
<path d="M21.3801 6.66245H24.8179V5.66428H21.3801V3.33119H25.073V2.33301H20.2139V10.0057H25.1095V9.00757H21.3801V6.66245Z" fill="#232323"/>
<path d="M33.8316 7.96129H33.7587L29.8107 2.33301H28.7295V10.0057H29.8957V4.37747H29.9686L33.9166 10.0057H34.9856V2.33301H33.8316V7.96129Z" fill="#232323"/>
<path d="M40.8292 3.61983C41.1815 3.40336 41.5824 3.2831 42.0319 3.2831C42.4813 3.2831 42.5178 3.31918 42.7364 3.37931C42.9551 3.45147 43.1616 3.54768 43.3317 3.67997C43.5139 3.81225 43.6597 3.96859 43.7811 4.16101C43.9026 4.35343 43.9877 4.56991 44.0363 4.82246H45.2146C45.1539 4.41357 45.0202 4.04075 44.838 3.72807C44.6558 3.40336 44.4128 3.13878 44.1334 2.91029C43.854 2.68179 43.526 2.51342 43.1738 2.40518C42.8215 2.28492 42.4327 2.23682 42.0197 2.23682C41.3516 2.23682 40.7563 2.39316 40.234 2.70584C39.7116 3.01852 39.2986 3.47552 38.9949 4.0648C38.6912 4.65409 38.5454 5.35161 38.5454 6.1694C38.5454 6.98718 38.6912 7.6847 38.9949 8.27399C39.2986 8.86328 39.7116 9.32027 40.234 9.63295C40.7563 9.94564 41.3516 10.102 42.0319 10.102C42.7121 10.102 42.8458 10.0418 43.2102 9.90956C43.5746 9.7893 43.8905 9.6089 44.1699 9.3804C44.4493 9.1519 44.6801 8.8753 44.8623 8.56262C45.0445 8.24994 45.166 7.90118 45.2267 7.52836H44.0484C43.9998 7.76889 43.9148 7.98536 43.7933 8.17778C43.6718 8.3702 43.5139 8.52654 43.3317 8.65883C43.1495 8.79112 42.9551 8.88733 42.7364 8.94746C42.5178 9.01962 42.287 9.04367 42.044 9.04367C41.6067 9.04367 41.2058 8.93543 40.8535 8.71896C40.5012 8.50249 40.2218 8.17778 40.0153 7.74483C39.8088 7.31189 39.7116 6.79476 39.7116 6.1694C39.7116 5.54403 39.8088 5.0269 40.0153 4.59396C40.2218 4.16101 40.5012 3.83631 40.8414 3.61983" fill="#232323"/>
<path d="M49.8791 2.33301H48.7129V10.0057H49.8791V2.33301Z" fill="#232323"/>
<path d="M55.88 2.33301L53.0981 10.0057H54.3372L55.0418 7.97331H58.0666L58.7712 10.0057H60.0103L57.2284 2.33301H55.88ZM55.3819 6.99919L56.5238 3.72805H56.5846L57.7265 6.99919H55.3819Z" fill="#232323"/>
</g>
<defs>
<clipPath id="clip0_2_177">
<rect width="185" height="66" fill="white"/>
</clipPath>
</defs>
</svg>
