<svg width="113" height="115" viewBox="0 0 113 115" fill="none" xmlns="http://www.w3.org/2000/svg">
<path d="M65.3234 105.098H47.66C46.4349 105.098 45.4582 104.096 45.4582 102.877V91.2868C45.4582 90.051 46.4515 89.0656 47.66 89.0656H65.3234C66.5484 89.0656 67.5251 90.0677 67.5251 91.2868V102.877C67.5251 104.113 66.5319 105.098 65.3234 105.098ZM49.8782 100.639H63.1217V93.4913H49.8782V100.639Z" fill="#232323"/>
<path d="M109.176 78.3603H3.84043C2.48297 78.3603 1.40694 77.3583 1.40694 76.1391C1.40694 74.92 2.49953 73.9179 3.84043 73.9179H109.176C110.533 73.9179 111.609 74.92 111.609 76.1391C111.609 77.3583 110.516 78.3603 109.176 78.3603Z" fill="#232323"/>
<path d="M56.4835 85.9261H56.2683C56.202 85.9261 56.1193 85.9261 56.053 85.8927C55.9041 85.8593 55.7716 85.8259 55.6392 85.7591C55.5068 85.709 55.3743 85.6255 55.2584 85.5587C55.1922 85.5253 55.1426 85.4752 55.0763 85.4251C55.0267 85.375 54.9605 85.3249 54.9108 85.2748C54.8611 85.2247 54.8115 85.1745 54.7618 85.1077C54.7121 85.0576 54.679 84.9908 54.6294 84.924C54.5466 84.8071 54.4804 84.6735 54.4307 84.5399C54.3811 84.4063 54.3314 84.2727 54.2983 84.1224C54.2983 84.0556 54.2817 83.9721 54.2652 83.9053V83.4711C54.2652 83.4043 54.2817 83.3208 54.2983 83.254C54.3314 83.1204 54.3645 82.97 54.4307 82.8364C54.4804 82.7028 54.5632 82.5692 54.6294 82.4523C54.6625 82.3855 54.7121 82.3354 54.7618 82.2686C54.8115 82.2185 54.8611 82.1517 54.9108 82.1016C54.9605 82.0515 55.0101 82.0014 55.0763 81.9513C55.126 81.9012 55.1922 81.8678 55.2584 81.8177C55.3743 81.7342 55.5068 81.6674 55.6392 81.6173C55.7716 81.5672 55.9041 81.5171 56.053 81.4837C56.1193 81.4837 56.202 81.4503 56.2683 81.4503H56.6987C56.7649 81.4503 56.8477 81.467 56.9139 81.4837C57.0629 81.5171 57.1953 81.5505 57.3277 81.6173C57.4602 81.6674 57.5926 81.7342 57.7085 81.8177C57.7747 81.8511 57.8244 81.9012 57.8906 81.9513C57.9402 82.0014 58.0065 82.0515 58.0561 82.1016C58.1058 82.1517 58.1554 82.2018 58.2051 82.2686C58.2548 82.3187 58.2879 82.3855 58.3375 82.4523C58.4203 82.5692 58.4865 82.7028 58.5362 82.8364C58.5859 82.97 58.6355 83.1037 58.6686 83.254C58.6686 83.3208 58.7017 83.4043 58.7017 83.4711V83.9053C58.7017 83.9721 58.6852 84.0556 58.6686 84.1224C58.6355 84.2727 58.6024 84.4063 58.5362 84.5399C58.4865 84.6735 58.4038 84.8071 58.3375 84.924C58.3044 84.9908 58.2548 85.0409 58.2051 85.1077C58.1554 85.1578 58.1058 85.2247 58.0561 85.2748C58.0065 85.3249 57.9568 85.375 57.8906 85.4251C57.8409 85.4752 57.7747 85.5086 57.7085 85.5587C57.5926 85.6422 57.4602 85.709 57.3277 85.7591C57.1953 85.8092 57.0629 85.8593 56.9139 85.8927C56.8477 85.8927 56.7649 85.8927 56.6987 85.9261H56.4835Z" fill="#232323"/>
<path d="M101.958 93.5083H14.6342C13.4092 93.5083 12.4325 92.5063 12.4325 91.2871C12.4325 90.068 13.4257 89.0659 14.6342 89.0659H101.958C105.617 89.0659 108.58 86.0765 108.58 82.3856V28.0578C108.58 24.3669 105.617 21.3775 101.958 21.3775H94.0949C92.8699 21.3775 91.8932 20.3754 91.8932 19.1563C91.8932 17.9371 92.8865 16.9351 94.0949 16.9351H101.958C108.05 16.9351 113 21.9286 113 28.0745V82.3856C113 88.5315 108.05 93.525 101.958 93.525V93.5083Z" fill="#232323"/>
<path d="M16.1239 93.5079H11.0417C4.94974 93.5079 0 88.5144 0 82.3685V28.0574C0 21.9115 4.94974 16.918 11.0417 16.918H20.2956C21.5206 16.918 22.4973 17.92 22.4973 19.1392C22.4973 20.3583 21.5041 21.3604 20.2956 21.3604H11.0583C7.39978 21.3604 4.43656 24.3498 4.43656 28.0407V82.3518C4.43656 86.0427 7.39978 89.0321 11.0583 89.0321H16.1405C17.3655 89.0321 18.3422 90.0342 18.3422 91.2533C18.3422 92.4725 17.3489 93.4745 16.1405 93.4745V93.5079H16.1239Z" fill="#232323"/>
<path d="M19.9481 68.0059H93.052C94.2439 68.0059 95.204 67.0372 95.204 65.8348C95.204 64.6323 94.2439 63.6637 93.052 63.6637H90.8999V33.3016C90.8999 32.0991 89.9398 31.1305 88.7479 31.1305H80.1562C78.9643 31.1305 78.0041 32.0991 78.0041 33.3016V63.6637H73.7V46.3115C73.7 45.1091 72.7398 44.1404 71.5479 44.1404H62.9562C61.7643 44.1404 60.8042 45.1091 60.8042 46.3115V63.6637H56.5V33.3016C56.5 32.0991 55.5399 31.1305 54.348 31.1305H45.7563C44.5644 31.1305 43.6042 32.0991 43.6042 33.3016V63.6637H39.3001V44.1404C39.3001 42.938 38.3399 41.9693 37.148 41.9693H28.5563C27.3644 41.9693 26.4043 42.938 26.4043 44.1404V63.6637H19.9481C18.7562 63.6637 17.796 64.6323 17.796 65.8348C17.796 67.0372 18.7562 68.0059 19.9481 68.0059ZM82.2917 35.4727H86.5958V63.6637H82.2917V35.4727ZM65.0917 48.4826H69.3959V63.6637H65.0917V48.4826ZM47.9083 35.4727H52.2125V63.6637H47.9083V35.4727ZM30.7084 46.3115H35.0125V63.6637H30.7084V46.3115Z" fill="#232323"/>
<path d="M32.8439 26.07C36.7342 26.07 39.7636 22.6129 39.2339 18.6715L45.8556 11.4902C47.9249 13.2772 50.7888 13.511 53.0733 12.2751L60.8373 18.7884C60.3903 22.6797 63.4197 26.0533 67.2438 26.0533C71.0678 26.0533 73.7 23.1306 73.7 19.54L80.8845 16.2833C81.9109 16.968 83.1359 17.3689 84.4437 17.3689C88.0029 17.3689 90.8999 14.4462 90.8999 10.8555C90.8999 7.26486 88.0029 4.34221 84.4437 4.34221C80.8845 4.34221 77.0274 8.51742 78.269 12.6926L72.2597 15.4149C69.8925 12.4922 65.5718 12.1749 62.8403 14.7802L56.0034 9.03514C57.8078 4.75973 54.6625 0 50.0604 0C45.4583 0 43.1076 3.50717 43.687 7.46527L37.0984 14.6132C35.9727 13.6279 34.4828 13.0099 32.877 13.0099C29.3178 13.0099 26.4208 15.9326 26.4208 19.5233C26.4208 23.1139 29.3178 26.0366 32.877 26.0366L32.8439 26.07ZM84.4437 8.71783C85.6356 8.71783 86.5958 9.68648 86.5958 10.8889C86.5958 12.0914 85.6356 13.06 84.4437 13.06C83.2518 13.06 82.2917 12.0914 82.2917 10.8889C82.2917 9.68648 83.2518 8.71783 84.4437 8.71783ZM67.2438 17.4023C68.4357 17.4023 69.3958 18.3709 69.3958 19.5734C69.3958 20.7758 68.4357 21.7445 67.2438 21.7445C66.0519 21.7445 65.0917 20.7758 65.0917 19.5734C65.0917 18.3709 66.0519 17.4023 67.2438 17.4023ZM50.0438 4.39232C51.2357 4.39232 52.1959 5.36096 52.1959 6.56342C52.1959 7.76588 51.2357 8.73453 50.0438 8.73453C48.8519 8.73453 47.8918 7.76588 47.8918 6.56342C47.8918 5.36096 48.8519 4.39232 50.0438 4.39232ZM32.8439 17.4023C34.0358 17.4023 34.996 18.3709 34.996 19.5734C34.996 20.7758 34.0358 21.7445 32.8439 21.7445C31.652 21.7445 30.6918 20.7758 30.6918 19.5734C30.6918 18.3709 31.652 17.4023 32.8439 17.4023Z" fill="#232323"/>
<path d="M67.3428 100.689H45.6732C39.5812 100.689 34.6315 105.683 34.6315 111.829C34.6315 113.067 35.6082 114.05 36.8332 114.05H76.1828C77.4078 114.05 78.3845 113.048 78.3845 111.829C78.3845 105.683 73.4348 100.689 67.3428 100.689ZM56.5163 109.591H39.4322C40.3427 106.986 42.7928 105.132 45.6732 105.132H67.3428C70.2233 105.132 72.6733 106.986 73.5838 109.591H56.5163Z" fill="#232323"/>
</svg>
