<svg width="114" height="114" viewBox="0 0 114 114" fill="none" xmlns="http://www.w3.org/2000/svg">
<g clip-path="url(#clip0_2_1083)">
<path d="M43.4626 64.7707H41.5923C36.6716 64.7707 32.686 60.7852 32.686 55.8645V39.4324C32.686 30.3035 40.1228 22.8668 49.2517 22.8668H64.7931C73.922 22.8668 81.3587 30.3035 81.3587 39.4324V55.8645C81.3587 60.7629 77.3731 64.7707 72.4524 64.7707H70.5821C69.3575 64.7707 68.3556 63.7688 68.3556 62.5442C68.3556 61.3196 69.3575 60.3176 70.5821 60.3176H72.4524C74.9017 60.3176 76.9056 58.336 76.9056 55.8867V39.4547C76.9056 32.775 71.4728 27.3645 64.8153 27.3645H49.2739C42.5942 27.3645 37.1837 32.7973 37.1837 39.4547V55.8867C37.1837 58.336 39.1876 60.3176 41.6368 60.3176H43.5071C44.7317 60.3176 45.7337 61.3196 45.7337 62.5442C45.7337 63.7688 44.7317 64.7707 43.5071 64.7707H43.4626Z" fill="#232323"/>
<path d="M56.9999 27.3645C49.4519 27.3645 43.3289 21.2191 43.3289 13.6934C43.3289 6.16758 49.4519 0 56.9999 0C64.548 0 70.671 6.14531 70.671 13.6711C70.671 21.1969 64.5257 27.3422 56.9999 27.3422V27.3645ZM56.9999 4.45312C51.9234 4.45312 47.782 8.59453 47.782 13.6711C47.782 18.7477 51.9234 22.8891 56.9999 22.8891C62.0765 22.8891 66.2179 18.7477 66.2179 13.6711C66.2179 8.59453 62.0765 4.45312 56.9999 4.45312Z" fill="#232323"/>
<path d="M46.9805 70.0031H45.6223C43.5516 70.0031 41.8372 68.2664 41.8372 66.1512V43.418C41.8372 42.1934 42.8391 41.1914 44.0637 41.1914C45.2883 41.1914 46.2903 42.1934 46.2903 43.418V65.55H46.9583C48.1829 65.55 49.1848 66.552 49.1848 67.7766C49.1848 69.0012 48.1829 70.0031 46.9583 70.0031H46.9805Z" fill="#232323"/>
<path d="M68.3778 70.0031H66.9973C65.7727 70.0031 64.7708 69.0012 64.7708 67.7766C64.7708 66.552 65.7727 65.55 66.9973 65.55H67.6876V43.418C67.6876 42.1934 68.6895 41.1914 69.9141 41.1914C71.1387 41.1914 72.1407 42.1934 72.1407 43.418V66.1512C72.1407 68.2664 70.4485 70.0031 68.3555 70.0031H68.3778Z" fill="#232323"/>
<path d="M111.172 64.9265C109.948 64.9265 108.946 63.9246 108.946 62.7C108.946 54.8847 96.7888 47.3144 78.6868 43.8855C77.4845 43.6629 76.6829 42.4828 76.9056 41.2804C77.1282 40.0781 78.3083 39.2765 79.5106 39.4992C100.418 43.4625 113.399 52.3687 113.399 62.7C113.399 73.0312 112.397 64.9265 111.172 64.9265Z" fill="#232323"/>
<path d="M2.80542 64.9266C1.58081 64.9266 0.578857 63.9246 0.578857 62.7C0.578857 52.3465 13.582 43.4625 34.4894 39.4992C35.6917 39.2766 36.8718 40.0559 37.0945 41.2805C37.3171 42.5051 36.5378 43.6629 35.3132 43.8855C17.2113 47.3145 5.03198 54.8848 5.03198 62.7C5.03198 70.5152 4.03003 64.9266 2.80542 64.9266Z" fill="#232323"/>
<path d="M49.0289 114C48.4055 114 47.7598 113.866 47.1586 113.599C45.5109 112.864 44.4867 111.284 44.4867 109.48V109.013C41.8816 108.745 39.3211 108.411 36.8496 107.988C26.5406 106.229 17.6789 103.179 11.2664 99.1488C4.275 94.7625 0.556641 89.4633 0.556641 83.8301V63.123C0.556641 61.8984 1.55859 60.8965 2.7832 60.8965C4.00781 60.8965 5.00977 61.8984 5.00977 63.123C5.00977 68.1996 9.68555 72.2074 13.6266 74.6566C19.5492 78.375 27.832 81.2027 37.5844 82.8727C39.8332 83.2512 42.1266 83.5629 44.4867 83.8078V82.9617C44.4867 81.1582 45.5109 79.5773 47.1586 78.8426C48.8062 78.1078 50.6766 78.3973 52.0125 79.5996L66.8191 92.8477C67.7766 93.6937 68.3332 94.9184 68.3332 96.2098C68.3332 97.5012 67.7766 98.7258 66.8191 99.5941L52.0125 112.842C51.1664 113.599 50.0977 114 49.0066 114H49.0289ZM5.03203 73.3875V83.8301C5.03203 88.9066 9.70781 92.9145 13.6488 95.3637C19.5715 99.082 27.8543 101.91 37.6066 103.58C40.6125 104.092 43.7519 104.493 46.9137 104.76C48.0715 104.849 48.9621 105.829 48.9621 106.986V109.48C48.9621 109.48 48.9621 109.502 48.9621 109.525C48.9621 109.525 49.0066 109.547 49.0289 109.547C49.0289 109.547 49.0289 109.547 49.0512 109.547L63.8578 96.2988C63.8578 96.2988 63.8578 96.2988 63.8578 96.2543C63.8578 96.2098 63.8578 96.2098 63.8578 96.2098L49.0512 82.9617H49.0289C49.0289 82.9617 48.9621 82.9617 48.9621 82.984C48.9621 82.984 48.9621 82.984 48.9621 83.0062V86.3016C48.9621 86.925 48.6949 87.5262 48.2496 87.9492C47.782 88.3723 47.1809 88.5727 46.5574 88.5281C43.2621 88.2609 39.9891 87.8379 36.8719 87.3035C26.5629 85.5445 17.7234 82.4941 11.2887 78.4641C8.77266 76.8832 6.70195 75.2133 5.0543 73.432L5.03203 73.3875Z" fill="#232323"/>
<path d="M69.7582 108.968C68.8899 108.968 68.0883 108.456 67.7098 107.632C67.309 106.741 67.5317 105.717 68.2664 105.072L78.1078 96.2543C78.1078 96.2543 78.1078 96.2543 78.1078 96.2098C78.1078 96.1653 78.1078 96.1653 78.1078 96.1653L68.5782 87.6376C67.9102 87.0586 67.6653 86.1235 67.9325 85.2997C68.1996 84.4536 68.9344 83.8524 69.825 83.7633C81.0692 82.5387 91.2223 79.711 98.3918 75.77C105.183 72.0293 108.923 67.5317 108.923 63.1008C108.923 61.8762 109.925 60.8743 111.15 60.8743C112.375 60.8743 113.377 61.8762 113.377 63.1008V83.8079C113.377 90.0645 108.901 95.8313 100.418 100.463C92.6696 104.693 81.8485 107.699 69.9586 108.946C69.8696 108.946 69.8028 108.946 69.736 108.946L69.7582 108.968ZM75.2133 87.593L81.1137 92.87C82.0711 93.7161 82.6278 94.9629 82.6278 96.2321C82.6278 97.5235 82.0711 98.7481 81.1137 99.5942L76.7051 103.535C85.1438 102.066 92.6473 99.661 98.325 96.5661C105.183 92.8254 108.968 88.3055 108.968 83.8301V73.4098C106.875 75.6809 104.07 77.7739 100.574 79.6887C93.961 83.318 85.0992 86.0567 75.2133 87.5708V87.593Z" fill="#232323"/>
<path d="M108.055 73.2761C107.454 73.2761 106.853 73.0312 106.43 72.5636C101.776 67.5761 91.6008 63.457 78.4863 61.2527C77.2617 61.0523 76.4602 59.8945 76.6605 58.6921C76.8609 57.4675 78.0188 56.666 79.2211 56.8664C93.4934 59.271 104.314 63.7687 109.68 69.5355C110.527 70.4261 110.482 71.8511 109.569 72.6972C109.146 73.098 108.589 73.2984 108.055 73.2984V73.2761Z" fill="#232323"/>
<path d="M5.94488 73.2762C5.38823 73.2762 4.85386 73.0758 4.43081 72.675C3.54019 71.8289 3.47339 70.4262 4.31948 69.5133C9.79683 63.6574 20.7292 58.9816 35.0906 56.3988C36.2929 56.1762 37.473 56.9777 37.6734 58.2023C37.896 59.4047 37.0945 60.5847 35.8699 60.7851C22.6441 63.1676 12.3351 67.4648 7.57027 72.5637C7.12495 73.0312 6.54605 73.2762 5.94488 73.2762Z" fill="#232323"/>
<path d="M57 70.0032C56.8441 70.0032 56.7105 70.0032 56.5547 69.9587C56.4211 69.9364 56.2652 69.8919 56.1316 69.8251C55.998 69.7805 55.8645 69.6915 55.7531 69.6247C55.6195 69.5356 55.5082 69.4465 55.4191 69.3575C55.3078 69.2461 55.2187 69.1348 55.152 69.0235C55.0629 68.9122 54.9961 68.7786 54.9516 68.645C54.907 68.5114 54.8402 68.3778 54.818 68.2219C54.7957 68.0883 54.7734 67.9325 54.7734 67.7766C54.7734 67.6208 54.7734 67.4872 54.818 67.3313C54.8402 67.1977 54.8848 67.0419 54.9516 66.9083C54.9961 66.7747 55.0852 66.6411 55.152 66.5297C55.241 66.4184 55.3301 66.2848 55.4191 66.1958C55.5305 66.0844 55.6418 65.9954 55.7531 65.9286C55.8645 65.8395 55.998 65.7727 56.1316 65.7282C56.2652 65.6837 56.3988 65.6169 56.5547 65.5946C57.2895 65.4387 58.0465 65.6836 58.5586 66.1958C58.6699 66.3071 58.759 66.4184 58.8258 66.5297C58.9148 66.6411 58.9816 66.7747 59.0262 66.9083C59.0707 67.0419 59.1152 67.1754 59.1598 67.3313C59.182 67.4872 59.2043 67.6208 59.2043 67.7766C59.2043 67.9325 59.2043 68.0661 59.1598 68.2219C59.1375 68.3555 59.093 68.5114 59.0262 68.645C58.9816 68.7786 58.8926 68.9122 58.8258 69.0235C58.7367 69.1348 58.6477 69.2684 58.5586 69.3575C58.4473 69.4688 58.3359 69.5579 58.2246 69.6247C58.1133 69.7137 57.9797 69.7805 57.8461 69.8251C57.7125 69.8696 57.5789 69.9141 57.423 69.9587C57.2672 69.9809 57.1336 70.0032 56.9777 70.0032H57Z" fill="#232323"/>
<path d="M43.5739 55.241H35.4692C34.2446 55.241 33.2427 54.239 33.2427 53.0144C33.2427 51.7898 34.2446 50.7878 35.4692 50.7878H43.5739C44.7985 50.7878 45.8005 51.7898 45.8005 53.0144C45.8005 54.239 44.7985 55.241 43.5739 55.241Z" fill="#232323"/>
<path d="M78.3305 55.241H70.2258C69.0012 55.241 67.9993 54.239 67.9993 53.0144C67.9993 51.7898 69.0012 50.7878 70.2258 50.7878H78.3305C79.5551 50.7878 80.5571 51.7898 80.5571 53.0144C80.5571 54.239 79.5551 55.241 78.3305 55.241Z" fill="#232323"/>
</g>
<defs>
<clipPath id="clip0_2_1083">
<rect width="114" height="114" fill="white"/>
</clipPath>
</defs>
</svg>
