<?xml version="1.0" encoding="UTF-8"?>
<svg id="Camada_1" data-name="Camada 1" xmlns="http://www.w3.org/2000/svg" viewBox="0 0 32 32">
  <defs>
    <style>
      .cls-1 {
        fill: #fff;
      }

      .cls-2 {
        fill: #ff5b00;
      }
    </style>
  </defs>
  <rect class="cls-2" width="32" height="32"/>
  <g>
    <path class="cls-1" d="M9.96,19.24l-1.84-4.62c-.17-.43-.54-.68-1-.68s-.83.25-1,.68l-1.84,4.62h-1.27l2.01-5.06c.35-.88,1.16-1.43,2.1-1.43s1.75.55,2.1,1.43l2.01,5.06h-1.27Z"/>
    <path class="cls-1" d="M18.6,13.37c.25-.36.64-.58,1.08-.61.03,0,.05,0,.08,0,.11,0,.21.01.31.04.61.14,1.06.67,1.09,1.29h0s0,0,0,0c0,.04,0,.09,0,.13v4.99h-1.18v-4.99s0-.03,0-.04h0v-.02c0-.1-.07-.19-.17-.22-.02,0-.03,0-.05,0-.07,0-.13.03-.17.08v.02s-1.85,4.02-1.85,4.02c-.15.32-.35.83-.65,1.02-.15.1-.32.13-.49.13s-.34-.03-.49-.13c-.3-.2-.5-.7-.65-1.02l-1.83-4.02v-.02c-.06-.05-.12-.08-.18-.08-.02,0-.03,0-.05,0-.1.02-.17.11-.17.22h0s0,.02,0,.02c0,.01,0,.03,0,.04v4.99h-1.18v-4.99s0-.09,0-.13h0s0,0,0,0c.03-.63.48-1.15,1.09-1.29.1-.02.21-.04.31-.04.03,0,.05,0,.08,0,.43.02.83.25,1.08.61l.06.09,1.94,4.25,1.94-4.25.06-.09Z"/>
    <path class="cls-1" d="M27.72,12.87c-.2-.07-.42-.11-.64-.11h-3.51v.8c0,.21.17.38.38.38h3.13c.4,0,.73.33.74.73,0,0,0,0,0,0,0,0,0,0,0,0,0,.4-.33.73-.73.73h-2.78c-.22,0-.43.04-.64.11-.03.01-.06.02-.09.04v-.84c0-.21-.17-.38-.38-.38h-.8v3.34h0v1.57s1.18,0,1.18,0v-1.92h0c0-.41.33-.73.73-.73h2.78c.26,0,.52-.05.76-.16h.02c.38-.18.69-.46.89-.82.16-.29.25-.61.25-.94,0-.81-.52-1.54-1.28-1.81"/>
  </g>
</svg>