<svg width="1227" height="829" viewBox="0 0 1227 829" fill="none" xmlns="http://www.w3.org/2000/svg">
<g clip-path="url(#clip0_1_111)">
<path d="M1.3428 566.259C6.87142 568.478 12.1541 571.38 17.4405 574.247V574.248C28.3706 580.215 39.6619 584.311 51.7901 587.284L51.8008 587.286C64.1047 590.212 76.9226 593.823 89.9766 594.57L89.9864 594.571C91.3176 594.637 92.7626 594.545 94.1602 594.444C95.5894 594.34 96.9811 594.227 98.3369 594.219C101.086 594.204 103.251 594.641 104.706 596.098L104.716 596.107L104.725 596.117C108.505 599.77 112.788 601.829 117.585 603.345L117.595 603.349L117.605 603.352C129.226 606.854 141.178 607.591 153.13 607.591C159.826 607.591 166.563 608.819 173.327 610.465C176.708 611.288 180.077 612.211 183.447 613.133C186.81 614.053 190.176 614.973 193.515 615.778L193.518 615.779C206.488 618.876 219.361 621.95 231.775 626.46L232.976 626.902C238.301 628.917 243.045 632.012 247.735 635.442C252.373 638.833 257.057 642.631 262.015 645.794V645.795C274.334 653.687 287.013 660.71 299.898 667.711L300.233 667.893H300.345C301.665 668.635 302.985 669.423 304.278 670.225C297.484 674.217 292.489 680.127 289.727 689.801C288.618 693.622 287.401 697.58 285.563 700.88C283.736 704.16 281.381 706.636 278.068 707.706L278.055 707.709C275.935 708.417 273.694 708.432 271.186 708.401C268.758 708.371 266.04 708.295 263.397 709.041L263.39 709.042C258.866 710.346 255.766 713.588 253.094 716.931C250.336 720.382 248.09 723.827 245.053 726.403C240.63 730.092 235.015 731.452 229.022 731.26C223.019 731.068 216.735 729.32 211.147 726.914L211.138 726.911L211.129 726.907L210.063 726.457C207.577 725.392 205.104 724.229 202.603 723.052C199.755 721.713 196.87 720.359 193.947 719.153C188.102 716.741 182.002 714.878 175.461 714.878C172.147 714.878 168.919 715.325 165.802 715.801C162.653 716.283 159.641 716.79 156.6 716.969C150.515 717.327 144.273 715.975 140.805 711.635L140.795 711.624C137.442 707.509 137.439 701.482 138.53 695.654C138.801 694.211 139.124 692.762 139.458 691.288C139.79 689.821 140.133 688.324 140.43 686.826C141.022 683.829 141.448 680.735 141.252 677.598C141.051 674.385 139.92 671.039 137.997 668.372C136.071 665.7 133.281 663.623 129.771 663.187H129.772C126.6 662.759 123.802 663.705 121.299 665.204C118.829 666.682 116.537 668.767 114.375 670.734C112.163 672.746 110.081 674.64 107.891 675.986C105.731 677.313 103.583 678.029 101.254 677.796L101.246 677.795L101.237 677.794C98.9244 677.589 96.9009 676.431 95.1026 674.659C93.2952 672.878 91.7846 670.542 90.5313 668.153C89.3028 665.811 88.0604 663.084 86.626 660.681C85.1595 658.224 83.3733 655.878 80.8633 654.113L80.8438 654.099L80.5059 653.875C76.9944 651.616 72.9902 650.984 69.0987 650.697C64.9556 650.391 61.0986 650.467 57.3584 649.695H57.3575C51.0814 648.306 45.9449 644.604 41.4922 639.714C37.0235 634.808 33.3187 628.79 29.8848 622.898L29.8838 622.897L24.8448 614.261C19.8247 605.645 14.8562 597.08 9.88675 588.513L9.8848 588.51L8.60062 586.292C5.63798 581.124 2.96913 575.98 1.83792 570.421L1.83499 570.409L1.83206 570.395C1.52797 569.025 1.3769 567.648 1.3428 566.259Z" stroke="#FF5B00" stroke-width="3"/>
<path d="M977.655 50.8975C982.113 46.2183 988.619 43.1419 994.64 44.126C986.795 79.3502 1006.95 118.706 1040.27 133.035L1040.28 133.037C1044.12 134.676 1048.04 136.117 1051.44 138.097C1054.81 140.051 1057.43 142.406 1058.73 145.702V145.703C1060.68 150.818 1058.89 156.801 1055.67 161.933L1055.66 161.943L1055.65 161.954C1054.11 164.517 1052.26 166.896 1050.39 169.421C1048.66 171.759 1046.93 174.201 1045.55 176.884L1045.28 177.423C1039.66 188.927 1041.73 201.757 1045.7 213.688C1032.15 222.483 1018.94 231.763 1006.32 241.872C1000.56 246.404 994.739 250.993 989.399 256.211C986.77 258.718 984.396 261.344 982.156 264.085L982.151 264.091C981.015 265.496 980.068 266.87 978.889 268.036C977.752 269.16 976.63 269.836 975.361 269.924L975.349 269.925L975.335 269.927C974.214 270.024 973.446 269.772 972.932 269.374C972.414 268.974 971.982 268.296 971.787 267.223L971.785 267.21L971.782 267.196C971.606 266.312 971.472 265.447 971.333 264.56C971.195 263.684 971.052 262.783 970.857 261.89C970.464 260.084 969.853 258.254 968.601 256.443L968.573 256.406L968.149 255.853C965.976 253.121 963.047 250.881 960.767 248.816L960.751 248.803L960.194 248.304C957.422 245.784 954.836 242.861 952.297 239.973L952.294 239.97L951.247 238.776C946.028 232.795 941.113 226.594 936.297 220.167L936.291 220.158L936.284 220.15L935.906 219.653C934.04 217.157 932.486 214.5 930.709 211.773C928.643 208.543 927.316 206.83 928.192 203.804C928.448 202.933 928.935 201.962 929.56 200.839C930.155 199.769 930.899 198.524 931.502 197.309C932.7 194.894 933.724 191.88 932.122 188.913L932.118 188.905L931.981 188.668C930.538 186.275 928.025 185.617 925.786 185.503C924.617 185.444 923.426 185.525 922.343 185.629C921.209 185.737 920.288 185.858 919.42 185.918C918.878 185.952 918.262 186.028 917.677 186.097C917.072 186.168 916.47 186.236 915.881 186.271C914.637 186.346 913.75 186.249 913.227 185.97L913.209 185.96L913.191 185.951L913.156 185.93C913.111 185.895 913.039 185.812 912.967 185.593C912.863 185.276 912.81 184.81 912.823 184.194C912.852 182.909 913.128 181.637 913.272 180.478V180.474C913.417 179.29 913.719 177.958 914.025 176.424C914.322 174.94 914.613 173.312 914.663 171.728C914.713 170.143 914.529 168.486 913.78 166.994C913.011 165.462 911.711 164.234 909.782 163.433L909.774 163.429L909.445 163.3C906.062 162.035 903.064 162.715 900.396 163.721C899.079 164.217 897.663 164.868 896.455 165.364C895.186 165.886 893.981 166.312 892.765 166.53C892.136 166.628 891.692 166.55 891.361 166.406C891.023 166.259 890.699 165.997 890.39 165.573C889.736 164.678 889.272 163.24 888.951 161.411C888.636 159.615 888.491 157.656 888.346 155.819C888.208 154.078 888.063 152.288 887.694 151.106H887.693C886.686 147.866 884.42 145.759 881.834 144.33C879.279 142.919 876.313 142.114 873.727 141.497L873.707 141.493L872.394 141.187C869.331 140.449 866.282 139.552 863.173 138.673C859.644 137.675 856.053 136.704 852.413 136.075C851.392 135.871 850.902 135.787 850.522 135.597C850.304 135.487 850.091 135.333 849.897 134.758C849.668 134.014 849.605 133.11 849.647 132.072C849.69 131.025 849.833 129.966 849.96 128.885L850.157 127.21H850.097C850.635 123.923 851.348 120.639 852.032 117.282C870.605 116.822 888.419 119.618 902.939 129.933L902.945 129.938C905.667 131.85 908.73 134.361 911.748 136.271C914.847 138.234 918.258 139.824 922.117 140.031V140.032C922.123 140.033 922.128 140.033 922.134 140.033V140.032C928.532 140.435 933.665 137.135 937.68 132.571C941.689 128.015 944.739 122.037 947.029 116.646L947.031 116.643C950.343 108.785 953.686 100.927 957.029 93.0664C960.37 85.2122 963.713 77.3553 967.024 69.498C969.999 62.6751 972.844 55.9481 977.655 50.8975Z" stroke="#FF5B00" stroke-width="3"/>
<mask id="path-3-inside-1_1_111" fill="white">
<path d="M664.666 176.731C663.562 181.029 663.93 185.696 666.629 189.38C669.697 193.679 674.973 195.89 677.917 200.434C684.298 210.259 673.623 220.33 674.727 230.278C676.077 242.191 687.488 251.402 697.549 256.437C702.948 259.139 709.083 260.736 713.746 264.789C718.654 268.965 723.93 272.649 729.329 276.211C734.605 279.649 740.004 283.088 745.157 286.773C750.556 290.58 756.568 293.405 762.335 296.966C766.752 299.668 771.415 302.861 774.605 307.037C777.427 310.844 780.74 315.143 782.09 319.81C783.562 324.845 780.74 328.898 778.041 332.951C774.85 337.741 773.992 343.513 770.679 348.18C768.961 350.636 766.875 352.97 765.28 355.426C763.439 358.128 762.09 361.198 760.74 364.146C758.041 370.164 755.587 376.427 753.01 382.568C750.31 389.077 747.488 395.464 744.666 401.85C742.09 407.868 738.777 413.518 735.955 419.413C730.065 431.94 724.421 444.59 718.408 457.117C712.519 469.398 706.875 481.68 700.617 493.716C697.549 499.611 694.85 505.506 692.273 511.524C690.187 516.436 686.138 523.068 689.819 528.227C693.378 533.016 700.003 535.595 704.911 538.789C709.083 541.491 713.132 544.561 715.586 548.859C718.531 554.141 718.04 559.422 718.654 565.317C719.267 571.949 721.967 577.598 724.053 583.862C726.016 589.757 726.629 596.143 728.838 601.915C730.924 607.442 735.096 610.267 740.372 612.6C744.666 614.688 749.329 615.916 753.746 617.759C756.077 618.741 758.163 620.215 759.758 622.18C761.476 624.391 761.967 627.461 764.053 629.18C767.734 632.128 773.623 632.619 778.163 633.11C785.157 633.724 791.415 631.637 798.163 630.04C804.298 628.566 809.329 631.637 815.096 633.356C821.354 635.198 827.857 636.672 834.36 637.532C848.593 639.62 863.072 639.742 877.305 640.725C891.661 641.708 906.017 642.936 920.373 644.778C949.084 648.339 977.674 652.638 1006.51 654.726C1017.55 655.586 1028.1 658.41 1039.02 660.375C1041.48 660.867 1043.93 661.235 1046.39 661.235C1048.84 661.235 1049.7 660.498 1050.07 658.042C1050.43 655.586 1050.68 653.375 1051.66 650.919C1052.77 648.217 1054.24 645.515 1055.22 642.813C1056.94 637.655 1057.43 632.005 1060.74 627.461C1062.46 625.127 1064.79 623.408 1067 621.566C1069.58 619.355 1072.03 617.022 1074.36 614.688C1078.78 610.513 1083.2 606.337 1087.61 602.161C1091.78 598.354 1097.43 593.441 1097.31 587.301C1097.31 581.283 1093.01 575.51 1091.29 569.861C1089.7 564.211 1088.84 558.316 1089.58 552.421C1090.31 546.403 1093.26 541.245 1095.71 535.841C1097.92 530.806 1097.67 524.788 1100.62 520.121C1103.44 515.577 1108.96 512.261 1113.5 509.682C1118.53 506.857 1123.69 504.523 1128.84 501.944C1133.63 499.488 1139.15 496.786 1142.83 492.733C1146.51 488.68 1144.3 482.417 1143.81 477.627C1143.44 474.434 1142.71 471.486 1141.97 468.416C1141.36 465.959 1140.86 463.258 1139.51 461.047C1136.94 456.994 1130.56 456.38 1126.14 456.134C1122.58 455.889 1119.02 454.906 1118.78 450.73C1118.53 445.695 1122.46 441.028 1125.9 437.835C1130.07 433.782 1134.73 430.098 1139.27 426.413C1143.69 422.851 1148.47 419.535 1153.75 417.448C1156.69 416.342 1159.76 415.728 1162.71 414.623C1165.4 413.64 1167.74 412.044 1170.07 410.324C1174.36 407.131 1177.8 403.201 1180.13 398.411C1183.07 392.639 1184.3 386.253 1187 380.48C1189.45 375.568 1193.38 372.497 1198.17 370.164C1202.83 367.83 1206.39 365.62 1208.96 360.953C1211.42 356.654 1212.77 351.619 1212.64 346.583C1212.4 341.057 1211.42 336.144 1213.75 330.74C1216.08 325.459 1220.87 322.021 1223.81 317.108C1229.09 308.265 1227.12 297.089 1226.75 287.018C1224.06 286.773 1221.23 286.527 1218.53 286.281C1221.6 282.351 1219.76 276.333 1215.96 273.14C1212.15 269.947 1207.12 268.842 1202.21 267.859C1191.05 265.649 1179.88 263.438 1168.72 261.227C1160.25 259.508 1150.07 258.28 1144.05 264.42C1138.53 270.07 1139.15 279.527 1134.73 286.159C1129.7 293.65 1117.92 295.492 1110.93 289.843C1103.81 284.194 1103.07 272.403 1109.45 265.894C1112.77 262.455 1117.55 260.613 1121.48 257.788C1125.4 254.964 1128.72 250.051 1127.12 245.507C1125.4 240.471 1119.15 238.875 1113.87 238.015C1091.29 234.454 1075.59 230.401 1053.01 226.839C1052.03 224.506 1051.05 222.172 1050.19 219.839C1047.24 221.804 1044.18 223.646 1041.23 225.611C1025.28 236.296 1008.96 247.84 995.097 261.227C992.029 264.175 989.33 267.491 986.631 270.807C984.79 273.017 982.827 275.228 980.005 276.333C975.097 278.298 968.716 276.702 966.385 271.789C964.79 268.228 965.772 264.052 963.44 260.736C961.354 257.666 957.919 255.455 955.219 252.999C948.839 246.981 943.318 239.98 937.919 233.103C933.011 226.962 928.348 220.698 924.299 214.066C922.581 211.242 920.986 208.417 921.354 205.101C921.6 202.399 922.704 199.451 924.054 196.995C924.667 195.767 925.771 194.662 926.14 193.311C926.508 192.082 926.876 192.942 925.771 192.696C925.403 192.696 924.667 192.696 924.299 192.696C922.213 192.696 920.25 193.065 918.164 193.188C913.379 193.433 907.367 192.819 906.63 187.047C906.262 183.977 906.63 180.415 907.244 177.345C907.735 174.643 910.189 169.853 906.017 169.853C899.759 169.853 894.483 176.362 888.103 172.678C882.826 169.607 882.336 161.502 881.968 156.22C881.722 152.413 880.372 150.939 876.814 149.588C874.237 148.606 871.538 148.238 868.839 147.623C865.158 146.764 861.722 145.536 858.164 144.553C854.974 143.693 851.293 143.571 848.225 142.22C841.845 139.395 842.949 130.921 843.931 125.271C844.421 122.201 845.158 119.13 845.771 116.183C837.059 116.674 828.348 117.657 819.881 118.762C808.716 120.236 796.446 122.201 789.084 130.798C782.212 138.904 781.108 151.308 772.274 157.326C761.476 164.572 747.366 157.449 734.482 155.361C716.445 152.413 698.531 160.028 680.617 163.835C677.059 164.572 672.887 164.818 668.347 164.695C667.856 168.87 666.016 173.415 665.157 176.731H664.666Z"/>
</mask>
<path d="M664.666 176.731C663.562 181.029 663.93 185.696 666.629 189.38C669.697 193.679 674.973 195.89 677.917 200.434C684.298 210.259 673.623 220.33 674.727 230.278C676.077 242.191 687.488 251.402 697.549 256.437C702.948 259.139 709.083 260.736 713.746 264.789C718.654 268.965 723.93 272.649 729.329 276.211C734.605 279.649 740.004 283.088 745.157 286.773C750.556 290.58 756.568 293.405 762.335 296.966C766.752 299.668 771.415 302.861 774.605 307.037C777.427 310.844 780.74 315.143 782.09 319.81C783.562 324.845 780.74 328.898 778.041 332.951C774.85 337.741 773.992 343.513 770.679 348.18C768.961 350.636 766.875 352.97 765.28 355.426C763.439 358.128 762.09 361.198 760.74 364.146C758.041 370.164 755.587 376.427 753.01 382.568C750.31 389.077 747.488 395.464 744.666 401.85C742.09 407.868 738.777 413.518 735.955 419.413C730.065 431.94 724.421 444.59 718.408 457.117C712.519 469.398 706.875 481.68 700.617 493.716C697.549 499.611 694.85 505.506 692.273 511.524C690.187 516.436 686.138 523.068 689.819 528.227C693.378 533.016 700.003 535.595 704.911 538.789C709.083 541.491 713.132 544.561 715.586 548.859C718.531 554.141 718.04 559.422 718.654 565.317C719.267 571.949 721.967 577.598 724.053 583.862C726.016 589.757 726.629 596.143 728.838 601.915C730.924 607.442 735.096 610.267 740.372 612.6C744.666 614.688 749.329 615.916 753.746 617.759C756.077 618.741 758.163 620.215 759.758 622.18C761.476 624.391 761.967 627.461 764.053 629.18C767.734 632.128 773.623 632.619 778.163 633.11C785.157 633.724 791.415 631.637 798.163 630.04C804.298 628.566 809.329 631.637 815.096 633.356C821.354 635.198 827.857 636.672 834.36 637.532C848.593 639.62 863.072 639.742 877.305 640.725C891.661 641.708 906.017 642.936 920.373 644.778C949.084 648.339 977.674 652.638 1006.51 654.726C1017.55 655.586 1028.1 658.41 1039.02 660.375C1041.48 660.867 1043.93 661.235 1046.39 661.235C1048.84 661.235 1049.7 660.498 1050.07 658.042C1050.43 655.586 1050.68 653.375 1051.66 650.919C1052.77 648.217 1054.24 645.515 1055.22 642.813C1056.94 637.655 1057.43 632.005 1060.74 627.461C1062.46 625.127 1064.79 623.408 1067 621.566C1069.58 619.355 1072.03 617.022 1074.36 614.688C1078.78 610.513 1083.2 606.337 1087.61 602.161C1091.78 598.354 1097.43 593.441 1097.31 587.301C1097.31 581.283 1093.01 575.51 1091.29 569.861C1089.7 564.211 1088.84 558.316 1089.58 552.421C1090.31 546.403 1093.26 541.245 1095.71 535.841C1097.92 530.806 1097.67 524.788 1100.62 520.121C1103.44 515.577 1108.96 512.261 1113.5 509.682C1118.53 506.857 1123.69 504.523 1128.84 501.944C1133.63 499.488 1139.15 496.786 1142.83 492.733C1146.51 488.68 1144.3 482.417 1143.81 477.627C1143.44 474.434 1142.71 471.486 1141.97 468.416C1141.36 465.959 1140.86 463.258 1139.51 461.047C1136.94 456.994 1130.56 456.38 1126.14 456.134C1122.58 455.889 1119.02 454.906 1118.78 450.73C1118.53 445.695 1122.46 441.028 1125.9 437.835C1130.07 433.782 1134.73 430.098 1139.27 426.413C1143.69 422.851 1148.47 419.535 1153.75 417.448C1156.69 416.342 1159.76 415.728 1162.71 414.623C1165.4 413.64 1167.74 412.044 1170.07 410.324C1174.36 407.131 1177.8 403.201 1180.13 398.411C1183.07 392.639 1184.3 386.253 1187 380.48C1189.45 375.568 1193.38 372.497 1198.17 370.164C1202.83 367.83 1206.39 365.62 1208.96 360.953C1211.42 356.654 1212.77 351.619 1212.64 346.583C1212.4 341.057 1211.42 336.144 1213.75 330.74C1216.08 325.459 1220.87 322.021 1223.81 317.108C1229.09 308.265 1227.12 297.089 1226.75 287.018C1224.06 286.773 1221.23 286.527 1218.53 286.281C1221.6 282.351 1219.76 276.333 1215.96 273.14C1212.15 269.947 1207.12 268.842 1202.21 267.859C1191.05 265.649 1179.88 263.438 1168.72 261.227C1160.25 259.508 1150.07 258.28 1144.05 264.42C1138.53 270.07 1139.15 279.527 1134.73 286.159C1129.7 293.65 1117.92 295.492 1110.93 289.843C1103.81 284.194 1103.07 272.403 1109.45 265.894C1112.77 262.455 1117.55 260.613 1121.48 257.788C1125.4 254.964 1128.72 250.051 1127.12 245.507C1125.4 240.471 1119.15 238.875 1113.87 238.015C1091.29 234.454 1075.59 230.401 1053.01 226.839C1052.03 224.506 1051.05 222.172 1050.19 219.839C1047.24 221.804 1044.18 223.646 1041.23 225.611C1025.28 236.296 1008.96 247.84 995.097 261.227C992.029 264.175 989.33 267.491 986.631 270.807C984.79 273.017 982.827 275.228 980.005 276.333C975.097 278.298 968.716 276.702 966.385 271.789C964.79 268.228 965.772 264.052 963.44 260.736C961.354 257.666 957.919 255.455 955.219 252.999C948.839 246.981 943.318 239.98 937.919 233.103C933.011 226.962 928.348 220.698 924.299 214.066C922.581 211.242 920.986 208.417 921.354 205.101C921.6 202.399 922.704 199.451 924.054 196.995C924.667 195.767 925.771 194.662 926.14 193.311C926.508 192.082 926.876 192.942 925.771 192.696C925.403 192.696 924.667 192.696 924.299 192.696C922.213 192.696 920.25 193.065 918.164 193.188C913.379 193.433 907.367 192.819 906.63 187.047C906.262 183.977 906.63 180.415 907.244 177.345C907.735 174.643 910.189 169.853 906.017 169.853C899.759 169.853 894.483 176.362 888.103 172.678C882.826 169.607 882.336 161.502 881.968 156.22C881.722 152.413 880.372 150.939 876.814 149.588C874.237 148.606 871.538 148.238 868.839 147.623C865.158 146.764 861.722 145.536 858.164 144.553C854.974 143.693 851.293 143.571 848.225 142.22C841.845 139.395 842.949 130.921 843.931 125.271C844.421 122.201 845.158 119.13 845.771 116.183C837.059 116.674 828.348 117.657 819.881 118.762C808.716 120.236 796.446 122.201 789.084 130.798C782.212 138.904 781.108 151.308 772.274 157.326C761.476 164.572 747.366 157.449 734.482 155.361C716.445 152.413 698.531 160.028 680.617 163.835C677.059 164.572 672.887 164.818 668.347 164.695C667.856 168.87 666.016 173.415 665.157 176.731H664.666Z" stroke="#FF5B00" stroke-width="6" mask="url(#path-3-inside-1_1_111)"/>
<path d="M590.18 2.52393C595.39 0.746288 601.116 0.227255 605.927 2.24268C610.619 4.20859 614.114 8.93799 613.668 13.5728L613.612 14.021C613.373 15.5893 612.733 17.134 611.864 18.7319C610.98 20.3574 609.95 21.8878 608.91 23.5767C606.928 26.7972 604.941 30.527 606.035 34.7632C606.622 37.0401 608 38.8018 609.446 40.2974C610.169 41.0447 610.946 41.7621 611.674 42.4429C612.414 43.1359 613.112 43.8 613.744 44.4897L613.752 44.4985C621.501 52.8257 620.864 66.211 616.638 77.3315L616.636 77.3364C614.519 82.9667 611.746 88.3029 609.095 93.8433C606.464 99.3407 603.978 104.992 602.59 111.058C601.185 117.195 601.338 124.105 603.316 130.159C605.251 136.079 608.976 141.284 614.805 144.013C618.622 149.88 625.918 154.661 634.295 158.215C642.4 161.654 651.724 164.035 660.421 165.134C660.053 166.725 659.563 168.273 659.194 169.379L659.182 169.413L659.173 169.447C658.112 173.222 656.649 177.227 656.91 181.719V181.72C657.174 186.877 659.165 191.374 662.567 195.171L662.571 195.175C663.52 196.227 664.664 197.176 665.782 198.059C666.933 198.968 668.035 199.793 669.064 200.69C671.111 202.473 672.459 204.207 672.614 206.394V206.911C653.702 206.852 634.16 205.76 615.251 208.651C612.072 209.105 608.909 209.354 605.691 209.607L602.452 209.87C598.678 210.134 594.839 211.311 591.749 213.597C589.011 215.618 588.025 218.386 587.067 220.902L587.062 220.914L587.058 220.926C585.463 225.347 583.868 229.769 582.273 234.19C580.679 238.608 579.099 242.865 577.281 246.99L577.273 247.005L577.267 247.022C576.564 248.724 575.821 250.034 574.872 251.023C573.946 251.987 572.759 252.712 571.05 253.14C568.354 253.815 565.477 253.589 562.258 253.586C560.431 253.458 558.84 253.463 557.289 253.136C556.548 252.934 555.837 252.582 554.949 252.154C554.106 251.747 553.094 251.268 551.971 251.041H551.971C551.97 251.04 551.969 251.04 551.968 251.04C551.963 251.039 551.958 251.038 551.954 251.037H551.953C548.213 250.25 545.155 252.618 543.045 255.195C540.879 257.839 539.304 261.168 538.473 263.407L538.465 263.431L538.457 263.455C537.278 266.994 537.03 270.496 537.03 274C537.03 274.416 537.073 275.077 537.103 275.707C537.135 276.379 537.16 277.115 537.138 277.824C537.117 278.545 537.049 279.164 536.927 279.622C536.835 279.962 536.747 280.084 536.729 280.11C536.567 280.205 536.285 280.278 535.774 280.186C535.24 280.089 534.597 279.835 533.895 279.453C532.497 278.69 531.156 277.582 530.465 276.948L530.46 276.943C527.923 274.635 526.071 271.745 523.943 268.613H523.942C523.494 267.911 522.982 267.203 522.533 266.566C522.178 266.062 521.855 265.59 521.579 265.135L521.32 264.685L521.314 264.675L521.152 264.36C520.808 263.632 520.688 262.943 520.641 262.167C520.613 261.697 520.613 261.232 520.605 260.667C520.599 260.257 520.589 259.812 520.555 259.34L520.513 258.86C520.3 256.628 519.44 254.474 518.483 252.51C518 251.519 517.475 250.545 516.977 249.619C516.474 248.682 515.999 247.798 515.587 246.943L515.586 246.941L514.087 243.89C510.636 236.902 507.698 230.713 509.204 223.077L509.206 223.069C509.501 221.534 509.966 219.825 510.457 217.939C510.941 216.081 511.44 214.08 511.76 212.076C512.391 208.107 512.373 203.788 509.801 200.283L509.779 200.253L509.756 200.225C508.833 199.088 507.755 198.229 506.713 197.491C505.72 196.788 504.938 196.306 504.093 195.697L503.725 195.427C500.772 193.181 500.167 190.146 500.515 186.196L500.514 186.195C500.695 184.458 500.963 182.767 501.212 180.992C501.459 179.23 501.683 177.416 501.747 175.554V175.549C501.813 173.443 501.549 171.364 501.273 169.385C501.027 167.622 500.774 165.946 500.676 164.265L500.643 163.543C500.528 159.474 501.339 155.479 502.652 151.536C503.903 147.9 504.752 144.033 501.805 140.2L501.8 140.193L501.794 140.185L501.4 139.708C499.381 137.362 496.634 135.668 494 134.469H494.001C491.625 133.382 489.28 133.025 487.068 132.805C484.803 132.58 482.8 132.501 480.715 132.04C478.897 131.611 477.276 130.666 475.474 129.541C473.735 128.454 471.787 127.172 469.556 126.427L469.531 126.418L469.506 126.412L468.666 126.179C466.811 125.7 464.829 125.403 462.928 125.274C459.51 123.235 454.879 122.661 451.044 123.3C449.321 123.588 447.596 124.008 445.922 124.428C444.229 124.853 442.594 125.274 440.97 125.595C437.72 126.237 434.723 126.426 431.908 125.452C427.779 124.002 425.156 120.492 423.834 116.004C422.508 111.504 422.555 106.187 423.669 101.55C424.238 99.1807 424.969 96.8066 425.731 94.3921C426.489 91.9924 427.283 89.5408 427.952 87.0864C429.26 82.2922 430.14 77.3209 429.391 72.2241L429.401 72.1978L429.517 71.8462L429.458 71.481C428.608 66.3139 426.199 61.8275 423.241 57.7485C420.302 53.6954 416.721 49.9189 413.519 46.2915C407.465 39.4312 402.059 31.5208 402.504 23.2603C406.872 25.0328 411.259 26.7861 415.642 28.5356C420.643 30.5317 425.638 32.5254 430.601 34.5493L430.621 34.5571C441.194 38.6929 453.204 43.3541 464.925 40.2603L464.933 40.2573C468.907 39.1842 472.885 37.1827 476.465 35.7495C480.051 34.3137 483.416 33.3518 486.825 33.7437L487.155 33.7856L487.166 33.7866C490.468 34.2273 493.378 35.9158 496.408 38.0542C499.346 40.1276 502.509 42.7233 505.957 44.4487C516.265 49.7918 528.964 47.3732 538.764 41.9653C548.557 36.5616 556.343 28.2626 564.114 20.7271L564.123 20.7192C571.835 13.1226 580.095 5.96796 590.18 2.52393Z" stroke="#FF5B00" stroke-width="3"/>
<path d="M464.968 586.335C466.442 585.719 468.014 585.489 470.007 585.947L470.411 586.047C474.241 587.094 477.641 589.386 481.505 591.449V591.448C485.067 593.358 487.362 594.37 488.827 597.514L488.829 597.518C489.756 599.489 490.175 601.462 490.904 603.752C491.605 605.951 492.554 608.25 494.525 610.222L494.55 610.248C497.351 612.918 501.148 614.732 504.607 615.757C506.967 616.496 509.231 616.62 511.397 616.556C512.478 616.524 513.554 616.445 514.598 616.369C515.653 616.292 516.679 616.218 517.714 616.188C521.816 616.071 526.158 616.355 530.283 613.602C531.292 612.929 532.21 612.113 533.005 611.448C533.838 610.751 534.584 610.174 535.398 609.766L535.429 609.75C536.277 609.301 536.535 609.399 536.64 609.44C536.932 609.553 537.312 609.874 538.16 610.788V610.789C540.558 613.407 542.828 616.272 546.23 618.173C546.217 624.302 545.994 630.493 546.234 636.73C546.358 639.976 546.67 643.181 546.992 646.328C547.316 649.488 547.649 652.582 547.83 655.673L547.831 655.689L547.833 655.705C548.317 661.754 548.57 667.997 549.309 674.045V674.046C549.819 678.769 550.65 682.83 550.65 687.272V687.286L550.651 687.299C550.71 690.583 550.616 694.463 551.19 698.098C551.77 701.774 553.057 705.422 556.023 708.252L556.031 708.261L556.04 708.269C559.613 711.57 564.513 712.348 568.576 713.066L568.586 713.068L568.595 713.07C574.69 714.066 581.02 714.561 587.212 714.685H587.213C593.481 714.808 599.748 714.808 606.016 714.685V714.686C606.813 714.686 607.67 714.628 608.501 714.569C609.35 714.509 610.183 714.446 611.009 714.424C612.69 714.38 614.108 714.515 615.184 715.03L615.193 715.035L615.202 715.039C615.23 715.051 615.255 715.065 615.279 715.077C615.188 715.249 615.069 715.462 614.903 715.747C614.127 717.079 613.035 718.277 611.863 719.708C610.525 721.291 609.091 722.591 607.509 724.292C606.014 725.899 604.549 727.714 603.648 729.929C602.022 733.862 602.182 738.427 605.864 741.559V741.56C606.659 742.283 607.561 742.823 608.265 743.268C609.013 743.742 609.595 744.141 610.059 744.652L610.074 744.669C610.737 745.377 611.111 746.279 611.34 747.399C611.579 748.568 611.628 749.763 611.761 751.155L611.762 751.162C612.294 756.491 614.857 760.119 617.379 764.085V764.086C618.948 766.61 619.466 768.851 619.319 771.087C619.17 773.375 618.319 775.776 616.938 778.601V778.602C614.323 783.954 610.598 788.617 606.746 793.429C602.938 798.187 599.002 803.092 596.219 808.778C595.408 810.277 594.663 811.803 593.932 813.296C593.193 814.805 592.47 816.281 591.69 817.723C590.948 819.033 590.084 820.218 589.162 821.428C588.877 821.803 588.584 822.185 588.287 822.573L588.087 821.77L586.215 824.767C585.85 825.351 585.511 825.921 585.207 826.516C582.876 825.732 580.556 825.114 578.25 824.589L578.234 824.586L578.218 824.583L576.68 824.282C568.972 822.835 561.042 822.284 553.405 821.43C545.199 820.512 537.241 819.24 529.773 816.19C518.024 811.39 508.384 802.594 498.323 793.994C488.353 785.47 477.985 777.161 465.021 773.996H465.02C460.058 772.763 454.856 772.321 449.677 772.125C447.085 772.028 444.48 771.991 441.909 771.952C439.332 771.912 436.789 771.869 434.286 771.759C424.233 771.316 415.208 769.789 408.388 763.425L408.385 763.423C400.302 755.911 398.436 743.609 398.802 732.024C398.986 726.179 399.65 720.485 399.996 714.469C400.336 708.559 400.345 702.574 399.141 696.674L399.14 696.671C395.714 680.035 382.545 665.842 366.183 661.144L366.179 661.143L365.3 660.902C356.923 658.689 348.301 658.769 339.752 659.925C340.263 657.901 340.89 655.972 341.821 654.193L341.827 654.182C342.88 652.13 344.249 650.686 345.858 649.81C347.463 648.936 349.412 648.571 351.726 648.846H351.729C353.782 649.088 355.762 649.426 357.794 649.733C359.801 650.036 361.83 650.303 363.859 650.375C367.959 650.521 372.091 649.869 376.28 647.14L376.284 647.137C378.121 645.932 379.825 644.552 381.431 643.332C383.069 642.086 384.66 640.964 386.423 640.11L386.424 640.109C388.184 639.255 390.128 638.963 392.309 638.797C394.402 638.638 396.849 638.596 399.167 638.147L399.168 638.148C403.739 637.31 407.851 635.512 411.733 633.453C413.672 632.423 415.572 631.319 417.442 630.231C419.315 629.141 421.157 628.068 423.025 627.073C426.311 625.367 429.969 623.421 432.743 620.512C434.436 618.752 435.816 616.787 437.085 614.85C438.377 612.88 439.519 610.998 440.834 609.202C446.282 601.931 452.693 595.273 459.82 589.711L459.819 589.71C461.754 588.211 463.314 587.027 464.968 586.335Z" stroke="#FF5B00" stroke-width="3"/>
<path d="M21.227 568.141C34.2332 575.142 47.8529 578.949 62.2088 582.265C68.7119 583.739 75.0923 585.458 81.7181 586.441C85.2764 586.932 88.8347 587.423 92.393 587.423C95.4605 587.423 98.6507 587.055 101.718 587.177C103.927 587.3 105.89 587.669 107.73 589.02C109.448 590.248 110.675 592.09 112.393 593.195C116.688 596.143 122.332 597.125 127.24 598.108C133.743 599.459 140.246 600.196 146.872 600.319C153.62 600.319 160.001 600.319 166.626 601.67C180.124 604.372 193.498 608.179 206.749 611.495C219.019 614.565 232.516 617.513 243.559 623.776C248.713 626.724 253.007 630.777 257.67 634.216C263.069 638.146 268.836 641.584 274.48 645.023C280.124 648.585 285.768 652.024 291.658 655.217C297.547 658.41 303.682 661.358 309.449 664.796C310.799 665.656 312.271 666.516 313.621 667.498C315.83 666.761 318.161 666.147 320.615 665.533C324.419 664.674 328.1 663.814 332.026 663.077C332.64 658.533 333.867 654.112 336.075 650.182C338.897 645.269 343.683 642.198 349.45 642.076C354.112 641.953 358.529 643.672 363.069 643.918C368.713 644.164 372.517 641.584 376.812 638.268C380.247 635.689 383.928 633.233 388.223 632.496C392.272 631.759 396.321 632.128 400.37 630.9C405.278 629.549 409.327 626.969 413.622 624.39C417.057 622.302 420.738 620.706 424.051 618.495C428.223 615.793 430.554 611.74 433.254 607.688C435.462 604.372 438.162 601.178 440.738 598.108C444.051 594.301 447.732 590.616 451.536 587.3C454.603 584.721 457.794 581.651 461.352 579.809C468.591 576.247 476.321 580.668 482.702 584.107C486.137 585.949 489.818 587.423 492.395 590.616C494.849 593.809 495.708 597.003 496.935 600.81C498.53 605.723 502.947 608.547 507.978 609.284C511.904 609.898 516.199 609.038 520.125 608.916C523.315 608.916 525.401 608.056 527.855 606.091C529.45 604.863 531.046 603.389 533.009 602.652C535.831 601.547 538.53 601.915 540.862 603.757C544.297 606.459 546.015 610.635 550.309 612.355C553.868 613.705 557.917 613.214 561.598 612.723C572.15 611.372 582.58 611.986 593.132 611.372C603.929 610.758 614.604 608.916 625.402 608.547C635.831 608.302 646.261 608.547 656.568 609.038C661.598 609.284 666.384 609.161 671.292 608.302C673.5 607.933 676.936 607.565 678.04 605.354C680.003 601.547 676.445 596.511 677.059 592.336C677.672 588.528 680.003 586.318 683.194 584.598C685.525 583.37 686.875 582.756 687.243 579.809C687.488 577.721 686.997 575.633 686.997 573.545C687.12 569.124 688.96 565.071 689.819 560.772C690.801 555.614 691.169 550.456 691.537 545.298C691.783 542.473 692.151 539.894 693.378 537.56C692.519 537.069 691.66 536.455 690.801 535.964C686.506 532.893 682.58 529.209 682.089 523.682C681.721 518.278 684.421 513.243 686.384 508.453C691.66 495.926 698.531 484.136 704.298 471.732C710.188 459.082 716.2 446.677 722.212 434.15C725.157 427.887 727.734 421.5 730.678 415.237C733.623 409.096 737.059 403.201 739.636 396.937C745.034 384.165 750.065 371.269 755.955 358.742C757.304 355.794 758.777 352.847 760.74 350.268C762.458 347.934 764.544 345.724 766.016 343.144C767.611 340.565 768.225 337.618 769.329 334.793C770.311 332.337 771.783 330.126 773.255 327.915C774.85 325.459 776.814 323.003 775.832 319.932C775.096 317.599 773.501 315.388 772.151 313.423C768.838 308.633 765.403 305.072 760.495 301.879C755.096 298.317 749.083 295.615 743.807 292.053C738.409 288.369 733.01 284.685 727.488 281.246C722.212 277.807 716.936 274.368 711.905 270.315C709.083 267.982 706.629 266.017 703.316 264.543C700.372 263.315 697.549 262.209 694.727 260.736C684.543 255.7 675.095 247.963 670.555 237.401C668.47 232.488 667.733 227.084 669.206 221.803C669.942 219.101 671.292 216.4 672.151 213.575C661.598 213.575 651.169 213.575 640.617 213.575C635.218 213.575 629.696 213.575 624.298 214.066C618.531 214.557 612.886 215.785 607.12 216.277C603.07 216.645 597.304 216.154 594.481 219.716C593.5 220.944 593.009 223.032 592.518 224.505C591.659 226.962 590.8 229.418 589.819 231.997C587.978 237.155 586.015 242.313 584.052 247.472C582.58 251.156 581.107 254.718 577.794 257.174C572.764 260.858 566.015 260.49 560.003 260.244C558.04 260.244 555.954 259.999 553.99 259.508C553.009 259.262 550.8 257.665 549.941 257.788C547.978 258.034 545.647 262.946 544.911 264.666C542.211 270.561 545.401 277.93 541.966 283.579C538.898 288.737 531.782 286.772 527.733 283.948C522.334 280.263 517.794 273.508 514.604 267.859C512.518 264.052 513.745 260.122 511.904 256.314C510.064 252.384 508.101 248.454 506.137 244.647C502.334 236.91 500.002 229.664 501.598 221.066C502.456 216.645 504.052 212.347 504.174 207.802C504.297 203.995 502.456 203.013 499.512 201.048C493.499 196.872 492.15 190.977 492.886 183.976C493.254 180.046 494.236 176.116 493.867 172.186C493.499 168.133 492.64 164.203 492.886 160.15C493.131 155.975 494.236 152.167 495.463 148.237C496.321 145.535 495.953 144.062 493.745 142.342C492.272 141.237 490.432 140.254 488.714 139.64C484.665 138.289 480.248 139.272 476.199 137.675C472.64 136.324 469.818 133.377 466.015 132.394C466.015 132.394 466.015 132.394 465.892 132.394C465.892 132.517 465.892 132.763 465.892 132.885C465.769 143.079 447.241 142.588 444.174 152.29C443.07 155.975 444.665 160.273 443.315 163.835C441.352 168.993 434.849 170.467 429.45 171.081C416.689 172.677 403.806 174.151 390.922 174.642C374.971 175.134 366.505 163.712 351.29 168.87C341.106 172.309 330.554 175.748 319.756 175.011C308.959 174.274 297.915 168.502 294.112 158.431C292.639 154.501 292.394 150.08 291.412 146.027C289.327 137.675 283.682 130.306 276.198 126.008C274.357 136.201 262.701 141.974 252.271 141.851C241.842 141.851 231.903 137.552 221.719 135.587C211.535 133.622 199.51 134.482 192.639 142.342C189.571 145.904 187.976 150.325 186.381 154.746C183.804 161.993 181.228 169.239 178.774 176.362C177.301 180.415 175.952 184.836 177.424 188.766C179.142 193.433 184.295 195.767 188.099 198.96C191.903 202.276 194.111 208.908 190.062 211.733C184.541 210.013 178.774 208.294 173.007 208.908C167.24 209.522 161.35 212.961 159.755 218.487C158.406 223.4 160.614 228.558 163.682 232.611C166.749 236.541 170.798 239.857 173.989 243.787C178.528 249.314 181.105 256.069 183.682 262.701C189.326 277.193 194.847 291.808 200.492 306.3C205.89 320.178 211.289 334.67 210.553 349.531C209.817 364.391 211.903 370.901 197.424 374.953C182.7 391.533 161.35 402.096 139.142 403.815C132.884 404.306 126.135 404.183 120.737 407.377C114.234 411.307 110.921 419.29 104.295 422.974C97.301 426.904 88.5893 425.062 80.6138 424.079C72.6383 423.22 62.945 424.325 59.1413 431.448C53.4971 442.01 65.8898 455.643 60.2456 466.205C54.4787 476.767 36.1964 473.697 29.5706 483.767C26.2577 488.926 27.2393 495.68 29.5706 501.33C31.9019 506.979 35.3375 512.26 36.8099 518.156C38.2823 524.051 38.8958 522.7 33.6197 525.893C36.3191 532.525 29.816 539.402 23.1902 542.104C16.5644 544.806 8.83429 545.789 3.80359 550.824C1.84039 552.789 0.490686 555.123 -0.245514 557.825C6.87109 560.281 13.4969 563.965 20.1227 567.527L21.227 568.141Z" fill="#FF5B00"/>
<path d="M376.805 424H368.237L381.293 386.182H391.597L404.634 424H396.065L386.592 394.824H386.297L376.805 424ZM376.27 409.135H396.509V415.376H376.27V409.135ZM409.185 386.182H419.046L429.461 411.591H429.904L440.319 386.182H450.18V424H442.424V399.385H442.11L432.323 423.815H427.042L417.255 399.293H416.941V424H409.185V386.182Z" fill="#232332"/>
</g>
<defs>
<clipPath id="clip0_1_111">
<rect width="1227" height="829" fill="white"/>
</clipPath>
</defs>
</svg>
