<svg width="292" height="47" viewBox="0 0 292 47" fill="none" xmlns="http://www.w3.org/2000/svg">
<rect x="1" y="1" width="45" height="45" stroke="#232323" stroke-width="2"/>
<rect x="62.0176" y="1" width="45" height="45" stroke="#232323" stroke-width="2"/>
<rect x="123.035" y="1" width="45" height="45" stroke="#232323" stroke-width="2"/>
<rect x="184.053" y="1" width="45" height="45" stroke="#232323" stroke-width="2"/>
<rect x="245.07" y="1" width="45" height="45" stroke="#232323" stroke-width="2"/>
<path d="M23.5005 17.3462C20.0998 17.3462 17.3467 20.1023 17.3467 23.5C17.3467 26.9007 20.1028 29.6538 23.5005 29.6538C26.9011 29.6538 29.6543 26.8977 29.6543 23.5C29.6543 20.0993 26.8981 17.3462 23.5005 17.3462ZM23.5005 27.4943C21.293 27.4943 19.5062 25.7065 19.5062 23.5C19.5062 21.2935 21.294 19.5057 23.5005 19.5057C25.707 19.5057 27.4947 21.2935 27.4947 23.5C27.4957 25.7065 25.708 27.4943 23.5005 27.4943Z" fill="#232323"/>
<path d="M28.7709 10.7995C26.4192 10.6898 20.5943 10.6952 18.2405 10.7995C16.1721 10.8965 14.3476 11.396 12.8768 12.8668C10.4186 15.325 10.7327 18.6373 10.7327 23.4951C10.7327 28.4668 10.4558 31.7024 12.8768 34.1233C15.3445 36.59 18.7049 36.2673 23.5052 36.2673C28.4301 36.2673 30.13 36.2705 31.8714 35.5963C34.2391 34.6771 36.0263 32.5609 36.2009 28.7596C36.3117 26.4069 36.3053 20.5832 36.2009 18.2294C35.99 13.7423 33.5819 11.0211 28.7709 10.7995ZM32.4934 32.4969C30.8819 34.1084 28.6463 33.9646 23.4743 33.9646C18.1489 33.9646 16.0134 34.0434 14.4552 32.481C12.6605 30.6949 12.9854 27.8267 12.9854 23.478C12.9854 17.5936 12.3815 13.3557 18.2874 13.0532C19.6443 13.0053 20.0437 12.9893 23.4594 12.9893L23.5073 13.0212C29.1831 13.0212 33.6362 12.4269 33.9036 18.3316C33.9643 19.6789 33.9781 20.0837 33.9781 23.494C33.977 28.7575 34.0772 30.9057 32.4934 32.4969Z" fill="#232323"/>
<path d="M30.1271 18.2928C30.9114 18.2928 31.5472 17.657 31.5472 16.8727C31.5472 16.0884 30.9114 15.4526 30.1271 15.4526C29.3428 15.4526 28.707 16.0884 28.707 16.8727C28.707 17.657 29.3428 18.2928 30.1271 18.2928Z" fill="#232323"/>
<path d="M82.4235 24.6406C82.3418 24.6406 80.5459 24.6406 79.7296 24.6406C79.2943 24.6406 79.1582 24.4773 79.1582 24.0692C79.1582 22.9808 79.1582 21.8651 79.1582 20.7767C79.1582 20.3413 79.3215 20.2053 79.7296 20.2053H82.4235C82.4235 20.1237 82.4235 18.5454 82.4235 17.8108C82.4235 16.7223 82.6139 15.6883 83.1581 14.736C83.7296 13.7564 84.5459 13.1033 85.5799 12.7224C86.2601 12.4775 86.9404 12.3687 87.6751 12.3687H90.3417C90.7227 12.3687 90.8859 12.5319 90.8859 12.9129V16.0149C90.8859 16.3958 90.7227 16.5591 90.3417 16.5591C89.607 16.5591 88.8724 16.5591 88.1377 16.5863C87.403 16.5863 87.022 16.94 87.022 17.7019C86.9948 18.5182 87.022 19.3073 87.022 20.1509H90.1785C90.6138 20.1509 90.7771 20.3141 90.7771 20.7495V24.042C90.7771 24.4773 90.641 24.6134 90.1785 24.6134C89.1989 24.6134 87.1037 24.6134 87.022 24.6134V33.484C87.022 33.9466 86.886 34.1099 86.3962 34.1099C85.2534 34.1099 84.1377 34.1099 82.9949 34.1099C82.5867 34.1099 82.4235 33.9466 82.4235 33.5384C82.4235 30.6813 82.4235 24.7222 82.4235 24.6406Z" fill="#232323"/>
<path d="M158.772 17.8111C158.634 16.6898 157.545 15.6146 156.406 15.4706C149.459 14.6329 142.434 14.6329 135.49 15.4706C134.35 15.6143 133.261 16.6898 133.122 17.8111C132.632 21.9206 132.632 25.9052 133.122 30.0138C133.261 31.1351 134.35 32.2113 135.49 32.3544C142.434 33.1921 149.459 33.1921 156.406 32.3544C157.545 32.2116 158.634 31.1351 158.772 30.0138C159.263 25.9056 159.263 21.9206 158.772 17.8111ZM143.748 28.1812V19.645L150.345 23.9133L143.748 28.1812Z" fill="#232323"/>
<path d="M265.577 23.0747C266.122 22.801 266.533 22.4962 266.815 22.1667C267.316 21.5734 267.564 20.7867 267.564 19.8115C267.564 18.8625 267.316 18.0512 266.821 17.3711C265.995 16.2631 264.597 15.696 262.621 15.6665L254.79 15.6665V31.6516H262.091C262.914 31.6516 263.676 31.5811 264.381 31.4368C265.086 31.291 265.695 31.0238 266.212 30.6337C266.671 30.2945 267.054 29.8733 267.359 29.3766C267.841 28.626 268.082 27.7753 268.082 26.828C268.082 25.9102 267.87 25.1284 267.451 24.4859C267.026 23.8434 266.403 23.373 265.577 23.0747ZM258.02 18.4429H261.547C262.322 18.4429 262.962 18.5265 263.463 18.6921C264.043 18.933 264.333 19.4231 264.333 20.1704C264.333 20.8408 264.112 21.3095 263.675 21.5734C263.234 21.8373 262.662 21.9701 261.96 21.9701H258.02V18.4429ZM263.597 28.5965C263.207 28.785 262.658 28.8784 261.955 28.8784H258.02V24.6154H262.009C262.704 24.6203 263.245 24.7121 263.632 24.8842C264.32 25.1956 264.663 25.7659 264.663 26.6002C264.663 27.5836 264.309 28.2457 263.597 28.5965Z" fill="#232323"/>
<path d="M278.491 16.4121H271.546V18.4018H278.491V16.4121Z" fill="#232323"/>
<path d="M280.903 24.2646C280.759 23.3386 280.441 22.524 279.946 21.8209C279.404 21.0243 278.715 20.4408 277.878 20.0721C277.044 19.7016 276.104 19.5164 275.059 19.5181C273.303 19.5181 271.878 20.0671 270.774 21.1571C269.675 22.2503 269.124 23.8221 269.124 25.8708C269.124 28.0556 269.732 29.6339 270.955 30.6026C272.173 31.5728 273.579 32.0563 275.175 32.0563C277.108 32.0563 278.61 31.4811 279.684 30.3338C280.371 29.6093 280.759 28.8964 280.844 28.1965H277.645C277.46 28.5423 277.245 28.8128 276.999 29.0095C276.554 29.37 275.973 29.5503 275.262 29.5503C274.585 29.5503 274.011 29.4012 273.533 29.1045C272.743 28.6292 272.33 27.7966 272.277 26.6116H281.008C281.021 25.5905 280.989 24.8055 280.903 24.2646ZM272.356 24.5711C272.471 23.8024 272.749 23.1927 273.192 22.742C273.635 22.2929 274.261 22.0667 275.062 22.0651C275.801 22.0651 276.419 22.2765 276.922 22.701C277.419 23.1288 277.699 23.7499 277.757 24.5711H272.356Z" fill="#232323"/>
<path d="M216.86 33.8072V26.2574C216.86 22.5468 216.061 19.7124 211.732 19.7124C209.645 19.7124 208.254 20.8462 207.687 21.9284H207.635V20.0474H203.538V33.8072H207.815V26.9788C207.815 25.1751 208.15 23.4487 210.366 23.4487C212.557 23.4487 212.582 25.4843 212.582 27.0819V33.7815H216.86V33.8072Z" fill="#232323"/>
<path d="M196.581 20.0474H200.858V33.8072H196.581V20.0474Z" fill="#232323"/>
<path d="M198.72 13.1929C197.354 13.1929 196.246 14.3009 196.246 15.6666C196.246 17.0322 197.354 18.166 198.72 18.166C200.085 18.166 201.193 17.0322 201.193 15.6666C201.193 14.3009 200.085 13.1929 198.72 13.1929Z" fill="#232323"/>
</svg>
