<svg width="114" height="114" viewBox="0 0 114 114" fill="none" xmlns="http://www.w3.org/2000/svg">
<g clip-path="url(#clip0_2_1099)">
<path d="M22.1353 78.4783H40.3156L34.2224 90.3775H27.1281C26.4195 90.3775 25.7399 90.659 25.2388 91.1601C24.7377 91.6612 24.4562 92.3408 24.4562 93.0494C24.4562 93.758 24.7377 94.4376 25.2388 94.9387C25.7399 95.4398 26.4195 95.7213 27.1281 95.7213H31.4875L24.1205 110.11C23.9605 110.423 23.8637 110.764 23.8355 111.113C23.8073 111.463 23.8482 111.815 23.956 112.149C24.0638 112.483 24.2363 112.792 24.4636 113.059C24.691 113.327 24.9687 113.547 25.2811 113.706C25.5934 113.866 25.9341 113.963 26.2839 113.991C26.6336 114.02 26.9855 113.979 27.3194 113.871C27.6533 113.763 27.9628 113.591 28.23 113.363C28.4973 113.136 28.7171 112.858 28.8771 112.546L37.491 95.7213H76.5093L85.1232 112.546C85.2831 112.858 85.5029 113.136 85.7702 113.363C86.0374 113.591 86.3469 113.763 86.6808 113.871C87.0147 113.979 87.3666 114.02 87.7163 113.991C88.0661 113.963 88.4068 113.866 88.7192 113.706C89.0315 113.547 89.3093 113.327 89.5366 113.059C89.764 112.792 89.9364 112.483 90.0442 112.149C90.152 111.815 90.1929 111.463 90.1647 111.113C90.1365 110.764 90.0397 110.423 89.8798 110.11L82.5127 95.7213H86.8721C87.5807 95.7213 88.2603 95.4398 88.7614 94.9387C89.2625 94.4376 89.544 93.758 89.544 93.0494C89.544 92.3408 89.2625 91.6612 88.7614 91.1601C88.2603 90.659 87.5807 90.3775 86.8721 90.3775H79.7778L73.6855 78.4783H91.8659C93.6958 78.4761 95.4501 77.7482 96.7441 76.4542C98.038 75.1602 98.766 73.4059 98.7682 71.576V16.9575C98.766 15.1276 98.038 13.3732 96.7441 12.0793C95.4501 10.7853 93.6958 10.0574 91.8659 10.0552H63.7339V6.73379C63.7339 4.94788 63.0245 3.23511 61.7616 1.97228C60.4988 0.709451 58.786 0 57.0001 0C55.2142 0 53.5014 0.709451 52.2386 1.97228C50.9758 3.23511 50.2663 4.94788 50.2663 6.73379V10.0545H22.1353C20.3053 10.0567 18.551 10.7847 17.257 12.0786C15.9631 13.3726 15.2351 15.1269 15.2329 16.9568V71.5744C15.2347 73.4046 15.9625 75.1594 17.2565 76.4537C18.5505 77.7479 20.3051 78.4761 22.1353 78.4783ZM73.7735 90.3775H40.227L46.3191 78.4783H67.6812L73.7735 90.3775ZM55.6101 6.73379C55.6101 6.36513 55.7565 6.01157 56.0172 5.75089C56.2779 5.4902 56.6314 5.34375 57.0001 5.34375C57.3688 5.34375 57.7223 5.4902 57.983 5.75089C58.2437 6.01157 58.3902 6.36513 58.3902 6.73379V10.0545H55.6101V6.73379ZM20.576 16.9575C20.5766 16.5443 20.7411 16.1483 21.0332 15.8561C21.3254 15.564 21.7214 15.3996 22.1346 15.3989H91.865C92.2781 15.3996 92.6742 15.564 92.9663 15.8561C93.2585 16.1483 93.4229 16.5443 93.4236 16.9575V71.5751C93.4229 71.9883 93.2585 72.3843 92.9663 72.6765C92.6742 72.9686 92.2781 73.133 91.865 73.1337H22.1353C21.7221 73.133 21.326 72.9686 21.0339 72.6765C20.7417 72.3843 20.5773 71.9883 20.5767 71.5751L20.576 16.9575ZM65.5697 39.4819V27.7143L62.9606 30.434C62.7177 30.6872 62.4273 30.8901 62.106 31.031C61.7847 31.172 61.4387 31.2483 61.0879 31.2556C60.7371 31.2629 60.3883 31.201 60.0615 31.0735C59.7346 30.9459 59.436 30.7553 59.1828 30.5124C58.9296 30.2695 58.7267 29.9791 58.5858 29.6577C58.4448 29.3364 58.3685 28.9905 58.3612 28.6397C58.3539 28.2889 58.4158 27.9401 58.5433 27.6132C58.6709 27.2863 58.8615 26.9878 59.1044 26.7346L66.3136 19.2201C66.563 18.9602 66.8623 18.7534 67.1937 18.6121C67.525 18.4708 67.8815 18.398 68.2417 18.398C68.6019 18.398 68.9584 18.4708 69.2897 18.6121C69.6211 18.7534 69.9204 18.9602 70.1698 19.2201L77.3787 26.7346C77.6216 26.9878 77.8123 27.2863 77.9398 27.6132C78.0673 27.9401 78.1292 28.2889 78.1219 28.6397C78.1147 28.9905 78.0384 29.3364 77.8974 29.6577C77.7564 29.9791 77.5536 30.2695 77.3004 30.5124C77.0471 30.7553 76.7486 30.9459 76.4217 31.0735C76.0948 31.201 75.746 31.2629 75.3952 31.2556C75.0444 31.2483 74.6985 31.172 74.3772 31.031C74.0559 30.8901 73.7654 30.6872 73.5225 30.434L70.9135 27.7145V39.4819C70.911 41.648 70.0494 43.7247 68.5177 45.2564C66.986 46.7882 64.9092 47.6498 62.7431 47.6522H51.2574C50.5079 47.6531 49.7895 47.9511 49.2595 48.481C48.7296 49.011 48.4316 49.7294 48.4307 50.4789V67.4631C48.4307 68.1717 48.1492 68.8513 47.6482 69.3524C47.1471 69.8534 46.4675 70.1349 45.7589 70.1349C45.0502 70.1349 44.3706 69.8534 43.8696 69.3524C43.3685 68.8513 43.087 68.1717 43.087 67.4631V50.4789C43.0894 48.3127 43.951 46.2359 45.4827 44.7042C47.0144 43.1725 49.0912 42.3109 51.2574 42.3085H62.7431C63.4925 42.3077 64.211 42.0096 64.7409 41.4797C65.2708 40.9498 65.5689 40.2313 65.5697 39.4819ZM42.5435 34.4173C43.8618 34.4173 45.1506 34.0264 46.2467 33.2939C47.3429 32.5615 48.1972 31.5205 48.7017 30.3025C49.2063 29.0845 49.3383 27.7443 49.0811 26.4513C48.8239 25.1582 48.189 23.9705 47.2568 23.0383C46.3246 22.1061 45.1369 21.4713 43.8439 21.2141C42.5509 20.9569 41.2106 21.0889 39.9926 21.5934C38.7747 22.0979 37.7336 22.9523 37.0012 24.0484C36.2688 25.1446 35.8778 26.4333 35.8778 27.7517C35.8798 29.5189 36.5827 31.2132 37.8324 32.4628C39.082 33.7124 40.7763 34.4153 42.5435 34.4173ZM42.5435 26.4297C42.8049 26.4297 43.0605 26.5073 43.2779 26.6525C43.4953 26.7978 43.6647 27.0042 43.7648 27.2458C43.8648 27.4873 43.891 27.7531 43.84 28.0095C43.789 28.266 43.6631 28.5015 43.4782 28.6864C43.2933 28.8713 43.0578 28.9972 42.8014 29.0482C42.5449 29.0992 42.2792 29.073 42.0376 28.9729C41.7961 28.8729 41.5896 28.7035 41.4444 28.4861C41.2991 28.2687 41.2216 28.0131 41.2216 27.7517C41.2219 27.4011 41.3612 27.065 41.609 26.8171C41.8569 26.5692 42.1929 26.4297 42.5435 26.4293V26.4297ZM77.3398 61.4102L75.2579 63.492L77.3398 65.5738C77.8408 66.0749 78.1224 66.7545 78.1224 67.4632C78.1224 68.1718 77.8408 68.8514 77.3398 69.3525C76.8387 69.8536 76.1591 70.1351 75.4504 70.1351C74.7418 70.1351 74.0621 69.8536 73.5611 69.3525L71.4794 67.2707L69.3976 69.3525C68.8965 69.8536 68.2169 70.1351 67.5083 70.1351C66.7996 70.1351 66.12 69.8536 65.6189 69.3525C65.1178 68.8514 64.8363 68.1718 64.8363 67.4632C64.8363 66.7545 65.1178 66.0749 65.6189 65.5738L67.7007 63.492L65.6189 61.4102C65.1178 60.9091 64.8363 60.2295 64.8363 59.5208C64.8363 58.8122 65.1178 58.1325 65.6189 57.6315C66.12 57.1304 66.7996 56.8489 67.5083 56.8489C68.2169 56.8489 68.8965 57.1304 69.3976 57.6315L71.4794 59.7133L73.5611 57.6315C74.0621 57.1304 74.7418 56.8489 75.4504 56.8489C76.1591 56.8489 76.8387 57.1304 77.3398 57.6315C77.8408 58.1325 78.1224 58.8122 78.1224 59.5208C78.1224 60.2295 77.8408 60.9091 77.3398 61.4102Z" fill="#232323"/>
</g>
<defs>
<clipPath id="clip0_2_1099">
<rect width="114" height="114" fill="white"/>
</clipPath>
</defs>
</svg>
