<svg width="114" height="114" viewBox="0 0 114 114" fill="none" xmlns="http://www.w3.org/2000/svg">
<path d="M65.8922 104.799H48.075C46.8393 104.799 45.8541 103.797 45.8541 102.578V90.9896C45.8541 89.754 46.856 88.7687 48.075 88.7687H65.8922C67.1279 88.7687 68.1131 89.7706 68.1131 90.9896V102.578C68.1131 103.814 67.1112 104.799 65.8922 104.799ZM50.3126 100.341H63.6713V93.1938H50.3126V100.341Z" fill="#232323"/>
<path d="M110.126 78.065H3.87411C2.50484 78.065 1.41944 77.0631 1.41944 75.8441C1.41944 74.6251 2.52153 73.6232 3.87411 73.6232H110.126C111.496 73.6232 112.581 74.6251 112.581 75.8441C112.581 77.0631 111.479 78.065 110.126 78.065Z" fill="#232323"/>
<path d="M99.5059 93.1602H14.5109C13.4255 93.1602 12.5572 92.1583 12.5572 90.9393C12.5572 89.7204 13.4422 88.7185 14.5109 88.7185H99.4892C100.575 88.7185 101.443 89.7204 101.443 90.9393C101.443 92.1583 100.558 93.1602 99.4892 93.1602H99.5059Z" fill="#232323"/>
<path d="M56.975 85.6297H56.7579C56.6911 85.6297 56.6077 85.6297 56.5409 85.5963C56.3906 85.5629 56.257 85.5295 56.1234 85.4627C55.9898 85.4126 55.8562 85.3291 55.7393 85.2623C55.6725 85.2289 55.6224 85.1788 55.5556 85.1287C55.5056 85.0786 55.4388 85.0285 55.3887 84.9784C55.3386 84.9283 55.2885 84.8782 55.2384 84.8114C55.1883 84.7613 55.1549 84.6945 55.1048 84.6277C55.0213 84.5109 54.9545 84.3773 54.9044 84.2437C54.8543 84.1101 54.8042 83.9765 54.7708 83.8262C54.7708 83.7594 54.7541 83.6759 54.7374 83.6091V83.175C54.7374 83.1082 54.7541 83.0247 54.7708 82.9579C54.8042 82.8243 54.8376 82.674 54.9044 82.5404C54.9545 82.4069 55.038 82.2733 55.1048 82.1564C55.1382 82.0896 55.1883 82.0395 55.2384 81.9727C55.2885 81.9226 55.3386 81.8558 55.3887 81.8057C55.4388 81.7556 55.4889 81.7055 55.5556 81.6554C55.6057 81.6053 55.6725 81.5719 55.7393 81.5218C55.8562 81.4383 55.9898 81.3716 56.1234 81.3215C56.257 81.2714 56.3906 81.2213 56.5409 81.1879C56.6077 81.1879 56.6911 81.1545 56.7579 81.1545H57.1921C57.2589 81.1545 57.3424 81.1712 57.4092 81.1879C57.5595 81.2213 57.693 81.2547 57.8266 81.3215C57.9602 81.3716 58.0938 81.4383 58.2107 81.5218C58.2775 81.5552 58.3276 81.6053 58.3944 81.6554C58.4445 81.7055 58.5113 81.7556 58.5614 81.8057C58.6115 81.8558 58.6616 81.9059 58.7117 81.9727C58.7617 82.0228 58.7951 82.0896 58.8452 82.1564C58.9287 82.2733 58.9955 82.4069 59.0456 82.5404C59.0957 82.674 59.1458 82.8076 59.1792 82.9579C59.1792 83.0247 59.2126 83.1082 59.2126 83.175V83.6091C59.2126 83.6759 59.1959 83.7594 59.1792 83.8262C59.1458 83.9765 59.1124 84.1101 59.0456 84.2437C58.9955 84.3773 58.912 84.5109 58.8452 84.6277C58.8118 84.6945 58.7617 84.7446 58.7117 84.8114C58.6616 84.8615 58.6115 84.9283 58.5614 84.9784C58.5113 85.0285 58.4612 85.0786 58.3944 85.1287C58.3443 85.1788 58.2775 85.2122 58.2107 85.2623C58.0938 85.3458 57.9602 85.4126 57.8266 85.4627C57.693 85.5128 57.5595 85.5629 57.4092 85.5963C57.3424 85.5963 57.2589 85.5963 57.1921 85.6297H56.975Z" fill="#232323"/>
<path d="M16.2643 93.2107H11.1379C4.99283 93.2107 0 88.2178 0 82.0728V27.7695C0 21.6245 4.99283 16.6316 11.1379 16.6316H20.4723C21.708 16.6316 22.6932 17.6335 22.6932 18.8525C22.6932 20.0715 21.6913 21.0734 20.4723 21.0734H11.1546C7.4642 21.0734 4.47518 24.0624 4.47518 27.7528V82.0561C4.47518 85.7465 7.4642 88.7355 11.1546 88.7355H16.281C17.5167 88.7355 18.5019 89.7374 18.5019 90.9564C18.5019 92.1754 17.5 93.1773 16.281 93.1773V93.2107H16.2643Z" fill="#232323"/>
<path d="M97.7357 93.2107H102.862C109.007 93.2107 114 88.2178 114 82.0728V27.7695C114 21.6245 109.007 16.6316 102.862 16.6316H93.5277C92.292 16.6316 91.3068 17.6335 91.3068 18.8525C91.3068 20.0715 92.3087 21.0734 93.5277 21.0734H102.845C106.536 21.0734 109.525 24.0624 109.525 27.7528V82.0561C109.525 85.7465 106.536 88.7355 102.845 88.7355H97.719C96.4834 88.7355 95.4982 89.7374 95.4982 90.9564C95.4982 92.1754 96.5001 93.1773 97.719 93.1773V93.2107H97.7357Z" fill="#232323"/>
<path d="M89.2364 44.4179H81.2044C80.0522 44.4179 79.1171 43.4828 79.1171 42.3306V34.2986C79.1171 33.1464 80.0522 32.2113 81.2044 32.2113H89.2364C90.3886 32.2113 91.3237 33.1464 91.3237 34.2986V42.3306C91.3237 43.4828 90.3886 44.4179 89.2364 44.4179ZM83.2917 40.2433H87.1491V36.3859H83.2917V40.2433Z" fill="#232323"/>
<path d="M32.7956 44.4179H24.7636C23.6114 44.4179 22.6763 43.4828 22.6763 42.3306V34.2986C22.6763 33.1464 23.6114 32.2113 24.7636 32.2113H32.7956C33.9478 32.2113 34.8829 33.1464 34.8829 34.2986V42.3306C34.8829 43.4828 33.9478 44.4179 32.7956 44.4179ZM26.8509 40.2433H30.7083V36.3859H26.8509V40.2433Z" fill="#232323"/>
<path d="M28.788 36.4026C27.6359 36.4026 26.7007 35.4675 26.7007 34.3153C26.7007 19.3368 37.872 6.42892 52.7002 4.30822C53.8357 4.14124 54.9044 4.94276 55.0547 6.07825C55.2217 7.21375 54.4201 8.28245 53.2847 8.43273C40.5104 10.2529 30.8754 21.374 30.8754 34.2986C30.8754 47.2232 29.9402 36.3859 28.788 36.3859V36.4026Z" fill="#232323"/>
<path d="M85.2119 36.4026C84.0597 36.4026 83.1246 35.4675 83.1246 34.3153C83.1246 21.3907 73.4896 10.2695 60.7153 8.4494C59.5798 8.28241 58.7783 7.23041 58.9452 6.09492C59.1122 4.95942 60.1642 4.1579 61.2997 4.32488C76.1279 6.44558 87.2992 19.3368 87.2992 34.332C87.2992 49.3272 86.3641 36.4193 85.2119 36.4193V36.4026Z" fill="#232323"/>
<path d="M61.0158 12.1899H52.9839C51.8317 12.1899 50.8966 11.2547 50.8966 10.1026V2.08731C50.8966 0.935113 51.8317 0 52.9839 0H61.0158C62.168 0 63.1032 0.935113 63.1032 2.08731V10.1193C63.1032 11.2714 62.168 12.2066 61.0158 12.2066V12.1899ZM55.0712 8.01525H58.9285V4.15791H55.0712V8.01525Z" fill="#232323"/>
<path d="M85.212 36.4026C84.0598 36.4026 83.1247 35.4675 83.1247 34.3153V10.1026C83.1247 8.95039 84.0598 8.01528 85.212 8.01528C86.3642 8.01528 87.2993 8.95039 87.2993 10.1026V34.3153C87.2993 35.4675 86.3642 36.4026 85.212 36.4026Z" fill="#232323"/>
<path d="M85.212 12.1899C81.8557 12.1899 79.1171 9.45132 79.1171 6.09493C79.1171 2.73854 81.8557 0 85.212 0C88.5684 0 91.307 2.73854 91.307 6.09493C91.307 9.45132 88.5684 12.1899 85.212 12.1899ZM85.212 4.17461C84.1433 4.17461 83.2917 5.04293 83.2917 6.09493C83.2917 7.14693 84.16 8.01525 85.212 8.01525C86.264 8.01525 87.1324 7.14693 87.1324 6.09493C87.1324 5.04293 86.264 4.17461 85.212 4.17461Z" fill="#232323"/>
<path d="M28.788 36.4026C27.6359 36.4026 26.7007 35.4675 26.7007 34.3153V10.1026C26.7007 8.95039 27.6359 8.01528 28.788 8.01528C29.9402 8.01528 30.8754 8.95039 30.8754 10.1026V34.3153C30.8754 35.4675 29.9402 36.4026 28.788 36.4026Z" fill="#232323"/>
<path d="M28.7878 12.1899C25.4315 12.1899 22.6929 9.45132 22.6929 6.09493C22.6929 2.73854 25.4148 0 28.7878 0C32.1609 0 34.8828 2.73854 34.8828 6.09493C34.8828 9.45132 32.1442 12.1899 28.7878 12.1899ZM28.7878 4.17461C27.7191 4.17461 26.8675 5.04293 26.8675 6.09493C26.8675 7.14693 27.7358 8.01525 28.7878 8.01525C29.8399 8.01525 30.7082 7.14693 30.7082 6.09493C30.7082 5.04293 29.8399 4.17461 28.7878 4.17461Z" fill="#232323"/>
<path d="M57.0083 44.4179C55.8561 44.4179 54.921 43.4827 54.921 42.3306V18.5353C54.921 17.3831 55.8561 16.448 57.0083 16.448C58.1605 16.448 59.0956 17.3831 59.0956 18.5353V42.3473C59.0956 43.4994 58.1605 44.4346 57.0083 44.4346V44.4179Z" fill="#232323"/>
<path d="M61.0158 56.4574C60.6151 56.4574 60.2143 56.3405 59.8636 56.1067C58.9118 55.4722 58.6446 54.1697 59.2792 53.2179L66.6265 42.1802L56.9915 22.8101L47.3565 42.1802L54.7038 53.2179C55.3383 54.1697 55.0879 55.4722 54.1194 56.1067C53.1675 56.7413 51.8651 56.4908 51.2305 55.5223L43.1986 43.4827C42.7811 42.8649 42.731 42.0634 43.065 41.3954L55.1046 17.1827C55.4552 16.4813 56.1733 16.0305 56.9748 16.0305C57.7763 16.0305 58.4943 16.4813 58.845 17.1827L70.8846 41.3954C71.2186 42.0634 71.1685 42.8649 70.751 43.4827L62.7191 55.5223C62.3183 56.1234 61.6504 56.4574 60.9824 56.4574H61.0158Z" fill="#232323"/>
<path d="M65.0235 68.6306H48.9763C47.8241 68.6306 46.889 67.6955 46.889 66.5433V54.3701C46.889 53.2179 47.8241 52.2828 48.9763 52.2828H65.0235C66.1757 52.2828 67.1108 53.2179 67.1108 54.3701V66.5433C67.1108 67.6955 66.1757 68.6306 65.0235 68.6306ZM51.0636 64.456H62.9362V56.4574H51.0636V64.456Z" fill="#232323"/>
<path d="M67.9293 100.391H46.071C39.926 100.391 34.9332 105.384 34.9332 111.529C34.9072 113.766 35.9184 113.75 37.1541 113.75H76.8463C78.082 113.75 79.0672 112.748 79.0672 111.529C79.0672 105.384 74.0743 100.391 67.9293 100.391ZM57.0085 109.291H39.7757C40.6941 106.686 43.1655 104.833 46.071 104.833H67.9293C70.8348 104.833 73.3062 106.686 74.2246 109.291H57.0085Z" fill="#232323"/>
</svg>
